<mxfile host="Electron" agent="Mozilla/5.0 (Windows NT 10.0; Win64; x64) AppleWebKit/537.36 (KHTML, like Gecko) draw.io/25.0.2 Chrome/128.0.6613.186 Electron/32.2.5 Safari/537.36" version="25.0.2">
  <diagram id="C5RBs43oDa-KdzZeNtuy" name="Page-1">
    <mxGraphModel dx="2126" dy="3918" grid="1" gridSize="9" guides="1" tooltips="1" connect="1" arrows="1" fold="1" page="0" pageScale="1" pageWidth="827" pageHeight="1169" background="none" math="0" shadow="0">
      <root>
        <mxCell id="WIyWlLk6GJQsqaUBKTNV-0" />
        <mxCell id="WIyWlLk6GJQsqaUBKTNV-1" parent="WIyWlLk6GJQsqaUBKTNV-0" />
        <mxCell id="V1QjoyrA2nP1wiMidViZ-8" value="&lt;font style=&quot;font-size: 12px;&quot;&gt;Utilisateur&lt;/font&gt;" style="swimlane;fontStyle=1;align=center;verticalAlign=top;childLayout=stackLayout;horizontal=1;startSize=26;horizontalStack=0;resizeParent=1;resizeParentMax=0;resizeLast=0;collapsible=1;marginBottom=0;whiteSpace=wrap;html=1;fontSize=9;" vertex="1" parent="WIyWlLk6GJQsqaUBKTNV-1">
          <mxGeometry x="-45" y="-1926" width="160" height="424" as="geometry">
            <mxRectangle x="-9" y="-792" width="90" height="27" as="alternateBounds" />
          </mxGeometry>
        </mxCell>
        <mxCell id="V1QjoyrA2nP1wiMidViZ-9" value="- id" style="text;strokeColor=none;fillColor=none;align=left;verticalAlign=top;spacingLeft=4;spacingRight=4;overflow=hidden;rotatable=0;points=[[0,0.5],[1,0.5]];portConstraint=eastwest;whiteSpace=wrap;html=1;fontSize=9;" vertex="1" parent="V1QjoyrA2nP1wiMidViZ-8">
          <mxGeometry y="26" width="160" height="26" as="geometry" />
        </mxCell>
        <mxCell id="V1QjoyrA2nP1wiMidViZ-11" value="- nom" style="text;strokeColor=none;fillColor=none;align=left;verticalAlign=top;spacingLeft=4;spacingRight=4;overflow=hidden;rotatable=0;points=[[0,0.5],[1,0.5]];portConstraint=eastwest;whiteSpace=wrap;html=1;fontSize=9;" vertex="1" parent="V1QjoyrA2nP1wiMidViZ-8">
          <mxGeometry y="52" width="160" height="26" as="geometry" />
        </mxCell>
        <mxCell id="V1QjoyrA2nP1wiMidViZ-12" value="&lt;div&gt;-prÃ©nom&lt;/div&gt;&lt;div&gt;&lt;br&gt;&lt;/div&gt;&lt;div&gt;&lt;br&gt;&lt;/div&gt;&lt;div&gt;&lt;br&gt;&lt;/div&gt;&lt;div&gt;&lt;br&gt;&lt;/div&gt;&lt;div&gt;&lt;br&gt;&lt;/div&gt;&lt;div&gt;&lt;br&gt;&lt;/div&gt;&lt;div&gt;&lt;br&gt;&lt;/div&gt;&lt;div&gt;&lt;br&gt;&lt;/div&gt;" style="text;strokeColor=none;fillColor=none;align=left;verticalAlign=top;spacingLeft=4;spacingRight=4;overflow=hidden;rotatable=0;points=[[0,0.5],[1,0.5]];portConstraint=eastwest;whiteSpace=wrap;html=1;fontSize=9;" vertex="1" parent="V1QjoyrA2nP1wiMidViZ-8">
          <mxGeometry y="78" width="160" height="26" as="geometry" />
        </mxCell>
        <mxCell id="V1QjoyrA2nP1wiMidViZ-13" value="- email" style="text;strokeColor=none;fillColor=none;align=left;verticalAlign=top;spacingLeft=4;spacingRight=4;overflow=hidden;rotatable=0;points=[[0,0.5],[1,0.5]];portConstraint=eastwest;whiteSpace=wrap;html=1;fontSize=9;" vertex="1" parent="V1QjoyrA2nP1wiMidViZ-8">
          <mxGeometry y="104" width="160" height="26" as="geometry" />
        </mxCell>
        <mxCell id="V1QjoyrA2nP1wiMidViZ-14" value="- motDePasse" style="text;strokeColor=none;fillColor=none;align=left;verticalAlign=top;spacingLeft=4;spacingRight=4;overflow=hidden;rotatable=0;points=[[0,0.5],[1,0.5]];portConstraint=eastwest;whiteSpace=wrap;html=1;fontSize=9;" vertex="1" parent="V1QjoyrA2nP1wiMidViZ-8">
          <mxGeometry y="130" width="160" height="26" as="geometry" />
        </mxCell>
        <mxCell id="V1QjoyrA2nP1wiMidViZ-15" value="- role" style="text;strokeColor=none;fillColor=none;align=left;verticalAlign=top;spacingLeft=4;spacingRight=4;overflow=hidden;rotatable=0;points=[[0,0.5],[1,0.5]];portConstraint=eastwest;whiteSpace=wrap;html=1;fontSize=9;" vertex="1" parent="V1QjoyrA2nP1wiMidViZ-8">
          <mxGeometry y="156" width="160" height="26" as="geometry" />
        </mxCell>
        <mxCell id="V1QjoyrA2nP1wiMidViZ-16" value="- telephone" style="text;strokeColor=none;fillColor=none;align=left;verticalAlign=top;spacingLeft=4;spacingRight=4;overflow=hidden;rotatable=0;points=[[0,0.5],[1,0.5]];portConstraint=eastwest;whiteSpace=wrap;html=1;fontSize=9;" vertex="1" parent="V1QjoyrA2nP1wiMidViZ-8">
          <mxGeometry y="182" width="160" height="26" as="geometry" />
        </mxCell>
        <mxCell id="V1QjoyrA2nP1wiMidViZ-17" value="- adresse" style="text;strokeColor=none;fillColor=none;align=left;verticalAlign=top;spacingLeft=4;spacingRight=4;overflow=hidden;rotatable=0;points=[[0,0.5],[1,0.5]];portConstraint=eastwest;whiteSpace=wrap;html=1;fontSize=9;" vertex="1" parent="V1QjoyrA2nP1wiMidViZ-8">
          <mxGeometry y="208" width="160" height="26" as="geometry" />
        </mxCell>
        <mxCell id="V1QjoyrA2nP1wiMidViZ-18" value="- dateCreation" style="text;strokeColor=none;fillColor=none;align=left;verticalAlign=top;spacingLeft=4;spacingRight=4;overflow=hidden;rotatable=0;points=[[0,0.5],[1,0.5]];portConstraint=eastwest;whiteSpace=wrap;html=1;fontSize=9;" vertex="1" parent="V1QjoyrA2nP1wiMidViZ-8">
          <mxGeometry y="234" width="160" height="26" as="geometry" />
        </mxCell>
        <mxCell id="V1QjoyrA2nP1wiMidViZ-19" value="- estActif" style="text;strokeColor=none;fillColor=none;align=left;verticalAlign=top;spacingLeft=4;spacingRight=4;overflow=hidden;rotatable=0;points=[[0,0.5],[1,0.5]];portConstraint=eastwest;whiteSpace=wrap;html=1;fontSize=9;" vertex="1" parent="V1QjoyrA2nP1wiMidViZ-8">
          <mxGeometry y="260" width="160" height="26" as="geometry" />
        </mxCell>
        <mxCell id="V1QjoyrA2nP1wiMidViZ-10" value="" style="line;strokeWidth=1;fillColor=none;align=left;verticalAlign=middle;spacingTop=-1;spacingLeft=3;spacingRight=3;rotatable=0;labelPosition=right;points=[];portConstraint=eastwest;strokeColor=inherit;fontSize=9;" vertex="1" parent="V1QjoyrA2nP1wiMidViZ-8">
          <mxGeometry y="286" width="160" height="8" as="geometry" />
        </mxCell>
        <mxCell id="V1QjoyrA2nP1wiMidViZ-20" value="+ seConnecter(email, motDePasse)" style="text;strokeColor=none;fillColor=none;align=left;verticalAlign=top;spacingLeft=4;spacingRight=4;overflow=hidden;rotatable=0;points=[[0,0.5],[1,0.5]];portConstraint=eastwest;whiteSpace=wrap;html=1;fontSize=9;" vertex="1" parent="V1QjoyrA2nP1wiMidViZ-8">
          <mxGeometry y="294" width="160" height="26" as="geometry" />
        </mxCell>
        <mxCell id="V1QjoyrA2nP1wiMidViZ-21" value="+ seDeconnecter()" style="text;strokeColor=none;fillColor=none;align=left;verticalAlign=top;spacingLeft=4;spacingRight=4;overflow=hidden;rotatable=0;points=[[0,0.5],[1,0.5]];portConstraint=eastwest;whiteSpace=wrap;html=1;fontSize=9;" vertex="1" parent="V1QjoyrA2nP1wiMidViZ-8">
          <mxGeometry y="320" width="160" height="26" as="geometry" />
        </mxCell>
        <mxCell id="V1QjoyrA2nP1wiMidViZ-22" value="+ modifierProfil()" style="text;strokeColor=none;fillColor=none;align=left;verticalAlign=top;spacingLeft=4;spacingRight=4;overflow=hidden;rotatable=0;points=[[0,0.5],[1,0.5]];portConstraint=eastwest;whiteSpace=wrap;html=1;fontSize=9;" vertex="1" parent="V1QjoyrA2nP1wiMidViZ-8">
          <mxGeometry y="346" width="160" height="26" as="geometry" />
        </mxCell>
        <mxCell id="V1QjoyrA2nP1wiMidViZ-23" value="+ changerMotDePasse()" style="text;strokeColor=none;fillColor=none;align=left;verticalAlign=top;spacingLeft=4;spacingRight=4;overflow=hidden;rotatable=0;points=[[0,0.5],[1,0.5]];portConstraint=eastwest;whiteSpace=wrap;html=1;fontSize=9;" vertex="1" parent="V1QjoyrA2nP1wiMidViZ-8">
          <mxGeometry y="372" width="160" height="26" as="geometry" />
        </mxCell>
        <mxCell id="V1QjoyrA2nP1wiMidViZ-24" value="+ recupererMotDePasse()" style="text;strokeColor=none;fillColor=none;align=left;verticalAlign=top;spacingLeft=4;spacingRight=4;overflow=hidden;rotatable=0;points=[[0,0.5],[1,0.5]];portConstraint=eastwest;whiteSpace=wrap;html=1;fontSize=9;" vertex="1" parent="V1QjoyrA2nP1wiMidViZ-8">
          <mxGeometry y="398" width="160" height="26" as="geometry" />
        </mxCell>
        <mxCell id="V1QjoyrA2nP1wiMidViZ-25" value="&lt;span style=&quot;font-size: 12px;&quot;&gt;Administrateur&lt;/span&gt;" style="swimlane;fontStyle=1;align=center;verticalAlign=top;childLayout=stackLayout;horizontal=1;startSize=26;horizontalStack=0;resizeParent=1;resizeParentMax=0;resizeLast=0;collapsible=1;marginBottom=0;whiteSpace=wrap;html=1;fontSize=9;" vertex="1" parent="WIyWlLk6GJQsqaUBKTNV-1">
          <mxGeometry x="-270" y="-1215" width="160" height="216" as="geometry">
            <mxRectangle x="-9" y="-792" width="90" height="27" as="alternateBounds" />
          </mxGeometry>
        </mxCell>
        <mxCell id="V1QjoyrA2nP1wiMidViZ-26" value="- journalActivites" style="text;strokeColor=none;fillColor=none;align=left;verticalAlign=top;spacingLeft=4;spacingRight=4;overflow=hidden;rotatable=0;points=[[0,0.5],[1,0.5]];portConstraint=eastwest;whiteSpace=wrap;html=1;fontSize=9;" vertex="1" parent="V1QjoyrA2nP1wiMidViZ-25">
          <mxGeometry y="26" width="160" height="26" as="geometry" />
        </mxCell>
        <mxCell id="V1QjoyrA2nP1wiMidViZ-36" value="" style="line;strokeWidth=1;fillColor=none;align=left;verticalAlign=middle;spacingTop=-1;spacingLeft=3;spacingRight=3;rotatable=0;labelPosition=right;points=[];portConstraint=eastwest;strokeColor=inherit;fontSize=9;" vertex="1" parent="V1QjoyrA2nP1wiMidViZ-25">
          <mxGeometry y="52" width="160" height="8" as="geometry" />
        </mxCell>
        <mxCell id="V1QjoyrA2nP1wiMidViZ-37" value="+ ajouterUtilisateur()" style="text;strokeColor=none;fillColor=none;align=left;verticalAlign=top;spacingLeft=4;spacingRight=4;overflow=hidden;rotatable=0;points=[[0,0.5],[1,0.5]];portConstraint=eastwest;whiteSpace=wrap;html=1;fontSize=9;" vertex="1" parent="V1QjoyrA2nP1wiMidViZ-25">
          <mxGeometry y="60" width="160" height="26" as="geometry" />
        </mxCell>
        <mxCell id="V1QjoyrA2nP1wiMidViZ-38" value="+ supprimerUtilisateur()" style="text;strokeColor=none;fillColor=none;align=left;verticalAlign=top;spacingLeft=4;spacingRight=4;overflow=hidden;rotatable=0;points=[[0,0.5],[1,0.5]];portConstraint=eastwest;whiteSpace=wrap;html=1;fontSize=9;" vertex="1" parent="V1QjoyrA2nP1wiMidViZ-25">
          <mxGeometry y="86" width="160" height="26" as="geometry" />
        </mxCell>
        <mxCell id="V1QjoyrA2nP1wiMidViZ-39" value="+ definirRole()" style="text;strokeColor=none;fillColor=none;align=left;verticalAlign=top;spacingLeft=4;spacingRight=4;overflow=hidden;rotatable=0;points=[[0,0.5],[1,0.5]];portConstraint=eastwest;whiteSpace=wrap;html=1;fontSize=9;" vertex="1" parent="V1QjoyrA2nP1wiMidViZ-25">
          <mxGeometry y="112" width="160" height="26" as="geometry" />
        </mxCell>
        <mxCell id="V1QjoyrA2nP1wiMidViZ-40" value="+ superviserPlateforme()" style="text;strokeColor=none;fillColor=none;align=left;verticalAlign=top;spacingLeft=4;spacingRight=4;overflow=hidden;rotatable=0;points=[[0,0.5],[1,0.5]];portConstraint=eastwest;whiteSpace=wrap;html=1;fontSize=9;" vertex="1" parent="V1QjoyrA2nP1wiMidViZ-25">
          <mxGeometry y="138" width="160" height="26" as="geometry" />
        </mxCell>
        <mxCell id="V1QjoyrA2nP1wiMidViZ-41" value="+ genererRapportActivite()" style="text;strokeColor=none;fillColor=none;align=left;verticalAlign=top;spacingLeft=4;spacingRight=4;overflow=hidden;rotatable=0;points=[[0,0.5],[1,0.5]];portConstraint=eastwest;whiteSpace=wrap;html=1;fontSize=9;" vertex="1" parent="V1QjoyrA2nP1wiMidViZ-25">
          <mxGeometry y="164" width="160" height="26" as="geometry" />
        </mxCell>
        <mxCell id="V1QjoyrA2nP1wiMidViZ-42" value="+ configurerParametreSysteme()" style="text;strokeColor=none;fillColor=none;align=left;verticalAlign=top;spacingLeft=4;spacingRight=4;overflow=hidden;rotatable=0;points=[[0,0.5],[1,0.5]];portConstraint=eastwest;whiteSpace=wrap;html=1;fontSize=9;" vertex="1" parent="V1QjoyrA2nP1wiMidViZ-25">
          <mxGeometry y="190" width="160" height="26" as="geometry" />
        </mxCell>
        <mxCell id="V1QjoyrA2nP1wiMidViZ-43" value="&lt;span style=&quot;font-size: 12px;&quot;&gt;Responsable de scolaritÃ©&lt;/span&gt;" style="swimlane;fontStyle=1;align=center;verticalAlign=top;childLayout=stackLayout;horizontal=1;startSize=26;horizontalStack=0;resizeParent=1;resizeParentMax=0;resizeLast=0;collapsible=1;marginBottom=0;whiteSpace=wrap;html=1;fontSize=9;" vertex="1" parent="WIyWlLk6GJQsqaUBKTNV-1">
          <mxGeometry x="27" y="-1206" width="160" height="294" as="geometry">
            <mxRectangle x="-9" y="-792" width="90" height="27" as="alternateBounds" />
          </mxGeometry>
        </mxCell>
        <mxCell id="V1QjoyrA2nP1wiMidViZ-44" value="- filiere" style="text;strokeColor=none;fillColor=none;align=left;verticalAlign=top;spacingLeft=4;spacingRight=4;overflow=hidden;rotatable=0;points=[[0,0.5],[1,0.5]];portConstraint=eastwest;whiteSpace=wrap;html=1;fontSize=9;" vertex="1" parent="V1QjoyrA2nP1wiMidViZ-43">
          <mxGeometry y="26" width="160" height="26" as="geometry" />
        </mxCell>
        <mxCell id="V1QjoyrA2nP1wiMidViZ-45" value="- niveaux" style="text;strokeColor=none;fillColor=none;align=left;verticalAlign=top;spacingLeft=4;spacingRight=4;overflow=hidden;rotatable=0;points=[[0,0.5],[1,0.5]];portConstraint=eastwest;whiteSpace=wrap;html=1;fontSize=9;" vertex="1" parent="V1QjoyrA2nP1wiMidViZ-43">
          <mxGeometry y="52" width="160" height="26" as="geometry" />
        </mxCell>
        <mxCell id="V1QjoyrA2nP1wiMidViZ-54" value="" style="line;strokeWidth=1;fillColor=none;align=left;verticalAlign=middle;spacingTop=-1;spacingLeft=3;spacingRight=3;rotatable=0;labelPosition=right;points=[];portConstraint=eastwest;strokeColor=inherit;fontSize=9;" vertex="1" parent="V1QjoyrA2nP1wiMidViZ-43">
          <mxGeometry y="78" width="160" height="8" as="geometry" />
        </mxCell>
        <mxCell id="V1QjoyrA2nP1wiMidViZ-55" value="+ creerFiliere(filiere&lt;span style=&quot;background-color: initial;&quot;&gt;)&lt;/span&gt;" style="text;strokeColor=none;fillColor=none;align=left;verticalAlign=top;spacingLeft=4;spacingRight=4;overflow=hidden;rotatable=0;points=[[0,0.5],[1,0.5]];portConstraint=eastwest;whiteSpace=wrap;html=1;fontSize=9;" vertex="1" parent="V1QjoyrA2nP1wiMidViZ-43">
          <mxGeometry y="86" width="160" height="26" as="geometry" />
        </mxCell>
        <mxCell id="V1QjoyrA2nP1wiMidViZ-56" value="+ creerNiveau(niveau)" style="text;strokeColor=none;fillColor=none;align=left;verticalAlign=top;spacingLeft=4;spacingRight=4;overflow=hidden;rotatable=0;points=[[0,0.5],[1,0.5]];portConstraint=eastwest;whiteSpace=wrap;html=1;fontSize=9;" vertex="1" parent="V1QjoyrA2nP1wiMidViZ-43">
          <mxGeometry y="112" width="160" height="26" as="geometry" />
        </mxCell>
        <mxCell id="V1QjoyrA2nP1wiMidViZ-57" value="+ gereStructureAcademique()" style="text;strokeColor=none;fillColor=none;align=left;verticalAlign=top;spacingLeft=4;spacingRight=4;overflow=hidden;rotatable=0;points=[[0,0.5],[1,0.5]];portConstraint=eastwest;whiteSpace=wrap;html=1;fontSize=9;" vertex="1" parent="V1QjoyrA2nP1wiMidViZ-43">
          <mxGeometry y="138" width="160" height="26" as="geometry" />
        </mxCell>
        <mxCell id="V1QjoyrA2nP1wiMidViZ-58" value="+ inscrireEnseignant(enseignant)" style="text;strokeColor=none;fillColor=none;align=left;verticalAlign=top;spacingLeft=4;spacingRight=4;overflow=hidden;rotatable=0;points=[[0,0.5],[1,0.5]];portConstraint=eastwest;whiteSpace=wrap;html=1;fontSize=9;" vertex="1" parent="V1QjoyrA2nP1wiMidViZ-43">
          <mxGeometry y="164" width="160" height="26" as="geometry" />
        </mxCell>
        <mxCell id="V1QjoyrA2nP1wiMidViZ-59" value="+ inscrireEtudiant(etudiant)" style="text;strokeColor=none;fillColor=none;align=left;verticalAlign=top;spacingLeft=4;spacingRight=4;overflow=hidden;rotatable=0;points=[[0,0.5],[1,0.5]];portConstraint=eastwest;whiteSpace=wrap;html=1;fontSize=9;" vertex="1" parent="V1QjoyrA2nP1wiMidViZ-43">
          <mxGeometry y="190" width="160" height="26" as="geometry" />
        </mxCell>
        <mxCell id="V1QjoyrA2nP1wiMidViZ-60" value="+ affecterMatiere(enseignant, list&amp;lt;matiere&amp;gt;)" style="text;strokeColor=none;fillColor=none;align=left;verticalAlign=top;spacingLeft=4;spacingRight=4;overflow=hidden;rotatable=0;points=[[0,0.5],[1,0.5]];portConstraint=eastwest;whiteSpace=wrap;html=1;fontSize=9;" vertex="1" parent="V1QjoyrA2nP1wiMidViZ-43">
          <mxGeometry y="216" width="160" height="26" as="geometry" />
        </mxCell>
        <mxCell id="V1QjoyrA2nP1wiMidViZ-61" value="+ gererEmploidutemps()" style="text;strokeColor=none;fillColor=none;align=left;verticalAlign=top;spacingLeft=4;spacingRight=4;overflow=hidden;rotatable=0;points=[[0,0.5],[1,0.5]];portConstraint=eastwest;whiteSpace=wrap;html=1;fontSize=9;" vertex="1" parent="V1QjoyrA2nP1wiMidViZ-43">
          <mxGeometry y="242" width="160" height="26" as="geometry" />
        </mxCell>
        <mxCell id="V1QjoyrA2nP1wiMidViZ-62" value="+ gererAnneeAcademique()" style="text;strokeColor=none;fillColor=none;align=left;verticalAlign=top;spacingLeft=4;spacingRight=4;overflow=hidden;rotatable=0;points=[[0,0.5],[1,0.5]];portConstraint=eastwest;whiteSpace=wrap;html=1;fontSize=9;" vertex="1" parent="V1QjoyrA2nP1wiMidViZ-43">
          <mxGeometry y="268" width="160" height="26" as="geometry" />
        </mxCell>
        <mxCell id="V1QjoyrA2nP1wiMidViZ-63" value="&lt;font style=&quot;font-size: 12px;&quot;&gt;Comptable&lt;/font&gt;" style="swimlane;fontStyle=1;align=center;verticalAlign=top;childLayout=stackLayout;horizontal=1;startSize=26;horizontalStack=0;resizeParent=1;resizeParentMax=0;resizeLast=0;collapsible=1;marginBottom=0;whiteSpace=wrap;html=1;fontSize=9;" vertex="1" parent="WIyWlLk6GJQsqaUBKTNV-1">
          <mxGeometry x="295" y="-1350" width="160" height="214" as="geometry">
            <mxRectangle x="-9" y="-792" width="90" height="27" as="alternateBounds" />
          </mxGeometry>
        </mxCell>
        <mxCell id="V1QjoyrA2nP1wiMidViZ-64" value="- transaction" style="text;strokeColor=none;fillColor=none;align=left;verticalAlign=top;spacingLeft=4;spacingRight=4;overflow=hidden;rotatable=0;points=[[0,0.5],[1,0.5]];portConstraint=eastwest;whiteSpace=wrap;html=1;fontSize=9;" vertex="1" parent="V1QjoyrA2nP1wiMidViZ-63">
          <mxGeometry y="26" width="160" height="24" as="geometry" />
        </mxCell>
        <mxCell id="V1QjoyrA2nP1wiMidViZ-74" value="" style="line;strokeWidth=1;fillColor=none;align=left;verticalAlign=middle;spacingTop=-1;spacingLeft=3;spacingRight=3;rotatable=0;labelPosition=right;points=[];portConstraint=eastwest;strokeColor=inherit;fontSize=9;" vertex="1" parent="V1QjoyrA2nP1wiMidViZ-63">
          <mxGeometry y="50" width="160" height="8" as="geometry" />
        </mxCell>
        <mxCell id="V1QjoyrA2nP1wiMidViZ-75" value="+ gerePaiemenEtudiant()" style="text;strokeColor=none;fillColor=none;align=left;verticalAlign=top;spacingLeft=4;spacingRight=4;overflow=hidden;rotatable=0;points=[[0,0.5],[1,0.5]];portConstraint=eastwest;whiteSpace=wrap;html=1;fontSize=9;" vertex="1" parent="V1QjoyrA2nP1wiMidViZ-63">
          <mxGeometry y="58" width="160" height="26" as="geometry" />
        </mxCell>
        <mxCell id="V1QjoyrA2nP1wiMidViZ-76" value="+ enregistrePaiement(paiement)" style="text;strokeColor=none;fillColor=none;align=left;verticalAlign=top;spacingLeft=4;spacingRight=4;overflow=hidden;rotatable=0;points=[[0,0.5],[1,0.5]];portConstraint=eastwest;whiteSpace=wrap;html=1;fontSize=9;" vertex="1" parent="V1QjoyrA2nP1wiMidViZ-63">
          <mxGeometry y="84" width="160" height="26" as="geometry" />
        </mxCell>
        <mxCell id="V1QjoyrA2nP1wiMidViZ-77" value="+ traitePaiementEnseignant()" style="text;strokeColor=none;fillColor=none;align=left;verticalAlign=top;spacingLeft=4;spacingRight=4;overflow=hidden;rotatable=0;points=[[0,0.5],[1,0.5]];portConstraint=eastwest;whiteSpace=wrap;html=1;fontSize=9;" vertex="1" parent="V1QjoyrA2nP1wiMidViZ-63">
          <mxGeometry y="110" width="160" height="26" as="geometry" />
        </mxCell>
        <mxCell id="V1QjoyrA2nP1wiMidViZ-78" value="+ gereFacture()" style="text;strokeColor=none;fillColor=none;align=left;verticalAlign=top;spacingLeft=4;spacingRight=4;overflow=hidden;rotatable=0;points=[[0,0.5],[1,0.5]];portConstraint=eastwest;whiteSpace=wrap;html=1;fontSize=9;" vertex="1" parent="V1QjoyrA2nP1wiMidViZ-63">
          <mxGeometry y="136" width="160" height="26" as="geometry" />
        </mxCell>
        <mxCell id="V1QjoyrA2nP1wiMidViZ-79" value="+ gereRapportFinancier()" style="text;strokeColor=none;fillColor=none;align=left;verticalAlign=top;spacingLeft=4;spacingRight=4;overflow=hidden;rotatable=0;points=[[0,0.5],[1,0.5]];portConstraint=eastwest;whiteSpace=wrap;html=1;fontSize=9;" vertex="1" parent="V1QjoyrA2nP1wiMidViZ-63">
          <mxGeometry y="162" width="160" height="26" as="geometry" />
        </mxCell>
        <mxCell id="V1QjoyrA2nP1wiMidViZ-80" value="+ suivreBudget()" style="text;strokeColor=none;fillColor=none;align=left;verticalAlign=top;spacingLeft=4;spacingRight=4;overflow=hidden;rotatable=0;points=[[0,0.5],[1,0.5]];portConstraint=eastwest;whiteSpace=wrap;html=1;fontSize=9;" vertex="1" parent="V1QjoyrA2nP1wiMidViZ-63">
          <mxGeometry y="188" width="160" height="26" as="geometry" />
        </mxCell>
        <mxCell id="V1QjoyrA2nP1wiMidViZ-81" value="&lt;font style=&quot;font-size: 12px;&quot;&gt;Enseignant&lt;/font&gt;" style="swimlane;fontStyle=1;align=center;verticalAlign=top;childLayout=stackLayout;horizontal=1;startSize=26;horizontalStack=0;resizeParent=1;resizeParentMax=0;resizeLast=0;collapsible=1;marginBottom=0;whiteSpace=wrap;html=1;fontSize=9;" vertex="1" parent="WIyWlLk6GJQsqaUBKTNV-1">
          <mxGeometry x="621" y="-1206" width="160" height="349" as="geometry">
            <mxRectangle x="-9" y="-792" width="90" height="27" as="alternateBounds" />
          </mxGeometry>
        </mxCell>
        <mxCell id="V1QjoyrA2nP1wiMidViZ-82" value="- matiere" style="text;strokeColor=none;fillColor=none;align=left;verticalAlign=top;spacingLeft=4;spacingRight=4;overflow=hidden;rotatable=0;points=[[0,0.5],[1,0.5]];portConstraint=eastwest;whiteSpace=wrap;html=1;fontSize=9;" vertex="1" parent="V1QjoyrA2nP1wiMidViZ-81">
          <mxGeometry y="26" width="160" height="26" as="geometry" />
        </mxCell>
        <mxCell id="V1QjoyrA2nP1wiMidViZ-83" value="- classe" style="text;strokeColor=none;fillColor=none;align=left;verticalAlign=top;spacingLeft=4;spacingRight=4;overflow=hidden;rotatable=0;points=[[0,0.5],[1,0.5]];portConstraint=eastwest;whiteSpace=wrap;html=1;fontSize=9;" vertex="1" parent="V1QjoyrA2nP1wiMidViZ-81">
          <mxGeometry y="52" width="160" height="26" as="geometry" />
        </mxCell>
        <mxCell id="V1QjoyrA2nP1wiMidViZ-84" value="&lt;div&gt;-emploi du temps&lt;/div&gt;&lt;div&gt;&lt;br&gt;&lt;/div&gt;&lt;div&gt;&lt;br&gt;&lt;/div&gt;&lt;div&gt;&lt;br&gt;&lt;/div&gt;&lt;div&gt;&lt;br&gt;&lt;/div&gt;&lt;div&gt;&lt;br&gt;&lt;/div&gt;&lt;div&gt;&lt;br&gt;&lt;/div&gt;&lt;div&gt;&lt;br&gt;&lt;/div&gt;&lt;div&gt;&lt;br&gt;&lt;/div&gt;" style="text;strokeColor=none;fillColor=none;align=left;verticalAlign=top;spacingLeft=4;spacingRight=4;overflow=hidden;rotatable=0;points=[[0,0.5],[1,0.5]];portConstraint=eastwest;whiteSpace=wrap;html=1;fontSize=9;" vertex="1" parent="V1QjoyrA2nP1wiMidViZ-81">
          <mxGeometry y="78" width="160" height="26" as="geometry" />
        </mxCell>
        <mxCell id="V1QjoyrA2nP1wiMidViZ-92" value="" style="line;strokeWidth=1;fillColor=none;align=left;verticalAlign=middle;spacingTop=-1;spacingLeft=3;spacingRight=3;rotatable=0;labelPosition=right;points=[];portConstraint=eastwest;strokeColor=inherit;fontSize=9;" vertex="1" parent="V1QjoyrA2nP1wiMidViZ-81">
          <mxGeometry y="104" width="160" height="8" as="geometry" />
        </mxCell>
        <mxCell id="V1QjoyrA2nP1wiMidViZ-93" value="+ organisercours(cours)" style="text;strokeColor=none;fillColor=none;align=left;verticalAlign=top;spacingLeft=4;spacingRight=4;overflow=hidden;rotatable=0;points=[[0,0.5],[1,0.5]];portConstraint=eastwest;whiteSpace=wrap;html=1;fontSize=9;" vertex="1" parent="V1QjoyrA2nP1wiMidViZ-81">
          <mxGeometry y="112" width="160" height="26" as="geometry" />
        </mxCell>
        <mxCell id="V1QjoyrA2nP1wiMidViZ-94" value="+ publierContenu(contenu)" style="text;strokeColor=none;fillColor=none;align=left;verticalAlign=top;spacingLeft=4;spacingRight=4;overflow=hidden;rotatable=0;points=[[0,0.5],[1,0.5]];portConstraint=eastwest;whiteSpace=wrap;html=1;fontSize=9;" vertex="1" parent="V1QjoyrA2nP1wiMidViZ-81">
          <mxGeometry y="138" width="160" height="26" as="geometry" />
        </mxCell>
        <mxCell id="V1QjoyrA2nP1wiMidViZ-95" value="+ creerForum(forum)" style="text;strokeColor=none;fillColor=none;align=left;verticalAlign=top;spacingLeft=4;spacingRight=4;overflow=hidden;rotatable=0;points=[[0,0.5],[1,0.5]];portConstraint=eastwest;whiteSpace=wrap;html=1;fontSize=9;" vertex="1" parent="V1QjoyrA2nP1wiMidViZ-81">
          <mxGeometry y="164" width="160" height="26" as="geometry" />
        </mxCell>
        <mxCell id="V1QjoyrA2nP1wiMidViZ-96" value="+ creerQuiz(quiz)" style="text;strokeColor=none;fillColor=none;align=left;verticalAlign=top;spacingLeft=4;spacingRight=4;overflow=hidden;rotatable=0;points=[[0,0.5],[1,0.5]];portConstraint=eastwest;whiteSpace=wrap;html=1;fontSize=9;" vertex="1" parent="V1QjoyrA2nP1wiMidViZ-81">
          <mxGeometry y="190" width="160" height="26" as="geometry" />
        </mxCell>
        <mxCell id="V1QjoyrA2nP1wiMidViZ-97" value="+ creerDevoir(devoir)" style="text;strokeColor=none;fillColor=none;align=left;verticalAlign=top;spacingLeft=4;spacingRight=4;overflow=hidden;rotatable=0;points=[[0,0.5],[1,0.5]];portConstraint=eastwest;whiteSpace=wrap;html=1;fontSize=9;" vertex="1" parent="V1QjoyrA2nP1wiMidViZ-81">
          <mxGeometry y="216" width="160" height="26" as="geometry" />
        </mxCell>
        <mxCell id="V1QjoyrA2nP1wiMidViZ-98" value="+ noterDevoir(devoir)" style="text;strokeColor=none;fillColor=none;align=left;verticalAlign=top;spacingLeft=4;spacingRight=4;overflow=hidden;rotatable=0;points=[[0,0.5],[1,0.5]];portConstraint=eastwest;whiteSpace=wrap;html=1;fontSize=9;" vertex="1" parent="V1QjoyrA2nP1wiMidViZ-81">
          <mxGeometry y="242" width="160" height="26" as="geometry" />
        </mxCell>
        <mxCell id="V1QjoyrA2nP1wiMidViZ-99" value="+ participeChat(chat)" style="text;strokeColor=none;fillColor=none;align=left;verticalAlign=top;spacingLeft=4;spacingRight=4;overflow=hidden;rotatable=0;points=[[0,0.5],[1,0.5]];portConstraint=eastwest;whiteSpace=wrap;html=1;fontSize=9;" vertex="1" parent="V1QjoyrA2nP1wiMidViZ-81">
          <mxGeometry y="268" width="160" height="29" as="geometry" />
        </mxCell>
        <mxCell id="V1QjoyrA2nP1wiMidViZ-100" value="+ gerePresence()" style="text;strokeColor=none;fillColor=none;align=left;verticalAlign=top;spacingLeft=4;spacingRight=4;overflow=hidden;rotatable=0;points=[[0,0.5],[1,0.5]];portConstraint=eastwest;whiteSpace=wrap;html=1;fontSize=9;" vertex="1" parent="V1QjoyrA2nP1wiMidViZ-81">
          <mxGeometry y="297" width="160" height="26" as="geometry" />
        </mxCell>
        <mxCell id="V1QjoyrA2nP1wiMidViZ-101" value="+ consulterEmploidutemps()" style="text;strokeColor=none;fillColor=none;align=left;verticalAlign=top;spacingLeft=4;spacingRight=4;overflow=hidden;rotatable=0;points=[[0,0.5],[1,0.5]];portConstraint=eastwest;whiteSpace=wrap;html=1;fontSize=9;" vertex="1" parent="V1QjoyrA2nP1wiMidViZ-81">
          <mxGeometry y="323" width="160" height="26" as="geometry" />
        </mxCell>
        <mxCell id="V1QjoyrA2nP1wiMidViZ-102" value="&lt;font style=&quot;font-size: 12px;&quot;&gt;Etudiant&lt;/font&gt;" style="swimlane;fontStyle=1;align=center;verticalAlign=top;childLayout=stackLayout;horizontal=1;startSize=26;horizontalStack=0;resizeParent=1;resizeParentMax=0;resizeLast=0;collapsible=1;marginBottom=0;whiteSpace=wrap;html=1;fontSize=9;" vertex="1" parent="WIyWlLk6GJQsqaUBKTNV-1">
          <mxGeometry x="981" y="-1206" width="160" height="346" as="geometry">
            <mxRectangle x="-9" y="-792" width="90" height="27" as="alternateBounds" />
          </mxGeometry>
        </mxCell>
        <mxCell id="V1QjoyrA2nP1wiMidViZ-103" value="- coursInscrit" style="text;strokeColor=none;fillColor=none;align=left;verticalAlign=top;spacingLeft=4;spacingRight=4;overflow=hidden;rotatable=0;points=[[0,0.5],[1,0.5]];portConstraint=eastwest;whiteSpace=wrap;html=1;fontSize=9;" vertex="1" parent="V1QjoyrA2nP1wiMidViZ-102">
          <mxGeometry y="26" width="160" height="26" as="geometry" />
        </mxCell>
        <mxCell id="V1QjoyrA2nP1wiMidViZ-104" value="- note" style="text;strokeColor=none;fillColor=none;align=left;verticalAlign=top;spacingLeft=4;spacingRight=4;overflow=hidden;rotatable=0;points=[[0,0.5],[1,0.5]];portConstraint=eastwest;whiteSpace=wrap;html=1;fontSize=9;" vertex="1" parent="V1QjoyrA2nP1wiMidViZ-102">
          <mxGeometry y="52" width="160" height="26" as="geometry" />
        </mxCell>
        <mxCell id="V1QjoyrA2nP1wiMidViZ-105" value="&lt;div&gt;-niveaux&lt;/div&gt;&lt;div&gt;&lt;br&gt;&lt;/div&gt;&lt;div&gt;&lt;br&gt;&lt;/div&gt;&lt;div&gt;&lt;br&gt;&lt;/div&gt;&lt;div&gt;&lt;br&gt;&lt;/div&gt;&lt;div&gt;&lt;br&gt;&lt;/div&gt;&lt;div&gt;&lt;br&gt;&lt;/div&gt;&lt;div&gt;&lt;br&gt;&lt;/div&gt;" style="text;strokeColor=none;fillColor=none;align=left;verticalAlign=top;spacingLeft=4;spacingRight=4;overflow=hidden;rotatable=0;points=[[0,0.5],[1,0.5]];portConstraint=eastwest;whiteSpace=wrap;html=1;fontSize=9;" vertex="1" parent="V1QjoyrA2nP1wiMidViZ-102">
          <mxGeometry y="78" width="160" height="26" as="geometry" />
        </mxCell>
        <mxCell id="V1QjoyrA2nP1wiMidViZ-106" value="- filiere" style="text;strokeColor=none;fillColor=none;align=left;verticalAlign=top;spacingLeft=4;spacingRight=4;overflow=hidden;rotatable=0;points=[[0,0.5],[1,0.5]];portConstraint=eastwest;whiteSpace=wrap;html=1;fontSize=9;" vertex="1" parent="V1QjoyrA2nP1wiMidViZ-102">
          <mxGeometry y="104" width="160" height="26" as="geometry" />
        </mxCell>
        <mxCell id="V1QjoyrA2nP1wiMidViZ-107" value="- etatPaiement" style="text;strokeColor=none;fillColor=none;align=left;verticalAlign=top;spacingLeft=4;spacingRight=4;overflow=hidden;rotatable=0;points=[[0,0.5],[1,0.5]];portConstraint=eastwest;whiteSpace=wrap;html=1;fontSize=9;" vertex="1" parent="V1QjoyrA2nP1wiMidViZ-102">
          <mxGeometry y="130" width="160" height="26" as="geometry" />
        </mxCell>
        <mxCell id="V1QjoyrA2nP1wiMidViZ-113" value="" style="line;strokeWidth=1;fillColor=none;align=left;verticalAlign=middle;spacingTop=-1;spacingLeft=3;spacingRight=3;rotatable=0;labelPosition=right;points=[];portConstraint=eastwest;strokeColor=inherit;fontSize=9;" vertex="1" parent="V1QjoyrA2nP1wiMidViZ-102">
          <mxGeometry y="156" width="160" height="8" as="geometry" />
        </mxCell>
        <mxCell id="V1QjoyrA2nP1wiMidViZ-114" value="+ accederCours(cours)" style="text;strokeColor=none;fillColor=none;align=left;verticalAlign=top;spacingLeft=4;spacingRight=4;overflow=hidden;rotatable=0;points=[[0,0.5],[1,0.5]];portConstraint=eastwest;whiteSpace=wrap;html=1;fontSize=9;" vertex="1" parent="V1QjoyrA2nP1wiMidViZ-102">
          <mxGeometry y="164" width="160" height="26" as="geometry" />
        </mxCell>
        <mxCell id="V1QjoyrA2nP1wiMidViZ-115" value="+ participerForum(forum)" style="text;strokeColor=none;fillColor=none;align=left;verticalAlign=top;spacingLeft=4;spacingRight=4;overflow=hidden;rotatable=0;points=[[0,0.5],[1,0.5]];portConstraint=eastwest;whiteSpace=wrap;html=1;fontSize=9;" vertex="1" parent="V1QjoyrA2nP1wiMidViZ-102">
          <mxGeometry y="190" width="160" height="26" as="geometry" />
        </mxCell>
        <mxCell id="V1QjoyrA2nP1wiMidViZ-116" value="+ passerQuiz(quiz)" style="text;strokeColor=none;fillColor=none;align=left;verticalAlign=top;spacingLeft=4;spacingRight=4;overflow=hidden;rotatable=0;points=[[0,0.5],[1,0.5]];portConstraint=eastwest;whiteSpace=wrap;html=1;fontSize=9;" vertex="1" parent="V1QjoyrA2nP1wiMidViZ-102">
          <mxGeometry y="216" width="160" height="26" as="geometry" />
        </mxCell>
        <mxCell id="V1QjoyrA2nP1wiMidViZ-117" value="+ soumettreDevoir(devoir)" style="text;strokeColor=none;fillColor=none;align=left;verticalAlign=top;spacingLeft=4;spacingRight=4;overflow=hidden;rotatable=0;points=[[0,0.5],[1,0.5]];portConstraint=eastwest;whiteSpace=wrap;html=1;fontSize=9;" vertex="1" parent="V1QjoyrA2nP1wiMidViZ-102">
          <mxGeometry y="242" width="160" height="26" as="geometry" />
        </mxCell>
        <mxCell id="V1QjoyrA2nP1wiMidViZ-118" value="+ consulterNote()" style="text;strokeColor=none;fillColor=none;align=left;verticalAlign=top;spacingLeft=4;spacingRight=4;overflow=hidden;rotatable=0;points=[[0,0.5],[1,0.5]];portConstraint=eastwest;whiteSpace=wrap;html=1;fontSize=9;" vertex="1" parent="V1QjoyrA2nP1wiMidViZ-102">
          <mxGeometry y="268" width="160" height="26" as="geometry" />
        </mxCell>
        <mxCell id="V1QjoyrA2nP1wiMidViZ-119" value="+ consulterEmploidutemps()" style="text;strokeColor=none;fillColor=none;align=left;verticalAlign=top;spacingLeft=4;spacingRight=4;overflow=hidden;rotatable=0;points=[[0,0.5],[1,0.5]];portConstraint=eastwest;whiteSpace=wrap;html=1;fontSize=9;" vertex="1" parent="V1QjoyrA2nP1wiMidViZ-102">
          <mxGeometry y="294" width="160" height="26" as="geometry" />
        </mxCell>
        <mxCell id="V1QjoyrA2nP1wiMidViZ-120" value="+ telechargerContenu(contenu)" style="text;strokeColor=none;fillColor=none;align=left;verticalAlign=top;spacingLeft=4;spacingRight=4;overflow=hidden;rotatable=0;points=[[0,0.5],[1,0.5]];portConstraint=eastwest;whiteSpace=wrap;html=1;fontSize=9;" vertex="1" parent="V1QjoyrA2nP1wiMidViZ-102">
          <mxGeometry y="320" width="160" height="26" as="geometry" />
        </mxCell>
        <mxCell id="V1QjoyrA2nP1wiMidViZ-121" value="&lt;font style=&quot;font-size: 12px;&quot;&gt;Cours&lt;/font&gt;" style="swimlane;fontStyle=1;align=center;verticalAlign=top;childLayout=stackLayout;horizontal=1;startSize=26;horizontalStack=0;resizeParent=1;resizeParentMax=0;resizeLast=0;collapsible=1;marginBottom=0;whiteSpace=wrap;html=1;fontSize=9;" vertex="1" parent="WIyWlLk6GJQsqaUBKTNV-1">
          <mxGeometry x="612" y="-648" width="160" height="423" as="geometry">
            <mxRectangle x="-9" y="-792" width="90" height="27" as="alternateBounds" />
          </mxGeometry>
        </mxCell>
        <mxCell id="V1QjoyrA2nP1wiMidViZ-122" value="- id" style="text;strokeColor=none;fillColor=none;align=left;verticalAlign=top;spacingLeft=4;spacingRight=4;overflow=hidden;rotatable=0;points=[[0,0.5],[1,0.5]];portConstraint=eastwest;whiteSpace=wrap;html=1;fontSize=9;" vertex="1" parent="V1QjoyrA2nP1wiMidViZ-121">
          <mxGeometry y="26" width="160" height="26" as="geometry" />
        </mxCell>
        <mxCell id="V1QjoyrA2nP1wiMidViZ-123" value="- titre" style="text;strokeColor=none;fillColor=none;align=left;verticalAlign=top;spacingLeft=4;spacingRight=4;overflow=hidden;rotatable=0;points=[[0,0.5],[1,0.5]];portConstraint=eastwest;whiteSpace=wrap;html=1;fontSize=9;" vertex="1" parent="V1QjoyrA2nP1wiMidViZ-121">
          <mxGeometry y="52" width="160" height="26" as="geometry" />
        </mxCell>
        <mxCell id="V1QjoyrA2nP1wiMidViZ-125" value="- description" style="text;strokeColor=none;fillColor=none;align=left;verticalAlign=top;spacingLeft=4;spacingRight=4;overflow=hidden;rotatable=0;points=[[0,0.5],[1,0.5]];portConstraint=eastwest;whiteSpace=wrap;html=1;fontSize=9;" vertex="1" parent="V1QjoyrA2nP1wiMidViZ-121">
          <mxGeometry y="78" width="160" height="26" as="geometry" />
        </mxCell>
        <mxCell id="V1QjoyrA2nP1wiMidViZ-126" value="- contenu" style="text;strokeColor=none;fillColor=none;align=left;verticalAlign=top;spacingLeft=4;spacingRight=4;overflow=hidden;rotatable=0;points=[[0,0.5],[1,0.5]];portConstraint=eastwest;whiteSpace=wrap;html=1;fontSize=9;" vertex="1" parent="V1QjoyrA2nP1wiMidViZ-121">
          <mxGeometry y="104" width="160" height="26" as="geometry" />
        </mxCell>
        <mxCell id="V1QjoyrA2nP1wiMidViZ-127" value="- chapitre" style="text;strokeColor=none;fillColor=none;align=left;verticalAlign=top;spacingLeft=4;spacingRight=4;overflow=hidden;rotatable=0;points=[[0,0.5],[1,0.5]];portConstraint=eastwest;whiteSpace=wrap;html=1;fontSize=9;" vertex="1" parent="V1QjoyrA2nP1wiMidViZ-121">
          <mxGeometry y="130" width="160" height="26" as="geometry" />
        </mxCell>
        <mxCell id="V1QjoyrA2nP1wiMidViZ-128" value="- forum" style="text;strokeColor=none;fillColor=none;align=left;verticalAlign=top;spacingLeft=4;spacingRight=4;overflow=hidden;rotatable=0;points=[[0,0.5],[1,0.5]];portConstraint=eastwest;whiteSpace=wrap;html=1;fontSize=9;" vertex="1" parent="V1QjoyrA2nP1wiMidViZ-121">
          <mxGeometry y="156" width="160" height="26" as="geometry" />
        </mxCell>
        <mxCell id="V1QjoyrA2nP1wiMidViZ-129" value="- chat" style="text;strokeColor=none;fillColor=none;align=left;verticalAlign=top;spacingLeft=4;spacingRight=4;overflow=hidden;rotatable=0;points=[[0,0.5],[1,0.5]];portConstraint=eastwest;whiteSpace=wrap;html=1;fontSize=9;" vertex="1" parent="V1QjoyrA2nP1wiMidViZ-121">
          <mxGeometry y="182" width="160" height="25" as="geometry" />
        </mxCell>
        <mxCell id="V1QjoyrA2nP1wiMidViZ-130" value="- dateDebut" style="text;strokeColor=none;fillColor=none;align=left;verticalAlign=top;spacingLeft=4;spacingRight=4;overflow=hidden;rotatable=0;points=[[0,0.5],[1,0.5]];portConstraint=eastwest;whiteSpace=wrap;html=1;fontSize=9;" vertex="1" parent="V1QjoyrA2nP1wiMidViZ-121">
          <mxGeometry y="207" width="160" height="26" as="geometry" />
        </mxCell>
        <mxCell id="V1QjoyrA2nP1wiMidViZ-131" value="- dateFin" style="text;strokeColor=none;fillColor=none;align=left;verticalAlign=top;spacingLeft=4;spacingRight=4;overflow=hidden;rotatable=0;points=[[0,0.5],[1,0.5]];portConstraint=eastwest;whiteSpace=wrap;html=1;fontSize=9;" vertex="1" parent="V1QjoyrA2nP1wiMidViZ-121">
          <mxGeometry y="233" width="160" height="26" as="geometry" />
        </mxCell>
        <mxCell id="V1QjoyrA2nP1wiMidViZ-133" value="- credits" style="text;strokeColor=none;fillColor=none;align=left;verticalAlign=top;spacingLeft=4;spacingRight=4;overflow=hidden;rotatable=0;points=[[0,0.5],[1,0.5]];portConstraint=eastwest;whiteSpace=wrap;html=1;fontSize=9;" vertex="1" parent="V1QjoyrA2nP1wiMidViZ-121">
          <mxGeometry y="259" width="160" height="26" as="geometry" />
        </mxCell>
        <mxCell id="V1QjoyrA2nP1wiMidViZ-134" value="- estPublie" style="text;strokeColor=none;fillColor=none;align=left;verticalAlign=top;spacingLeft=4;spacingRight=4;overflow=hidden;rotatable=0;points=[[0,0.5],[1,0.5]];portConstraint=eastwest;whiteSpace=wrap;html=1;fontSize=9;" vertex="1" parent="V1QjoyrA2nP1wiMidViZ-121">
          <mxGeometry y="285" width="160" height="26" as="geometry" />
        </mxCell>
        <mxCell id="V1QjoyrA2nP1wiMidViZ-132" value="" style="line;strokeWidth=1;fillColor=none;align=left;verticalAlign=middle;spacingTop=-1;spacingLeft=3;spacingRight=3;rotatable=0;labelPosition=right;points=[];portConstraint=eastwest;strokeColor=inherit;fontSize=9;" vertex="1" parent="V1QjoyrA2nP1wiMidViZ-121">
          <mxGeometry y="311" width="160" height="8" as="geometry" />
        </mxCell>
        <mxCell id="V1QjoyrA2nP1wiMidViZ-135" value="+ ajouterChapitre()" style="text;strokeColor=none;fillColor=none;align=left;verticalAlign=top;spacingLeft=4;spacingRight=4;overflow=hidden;rotatable=0;points=[[0,0.5],[1,0.5]];portConstraint=eastwest;whiteSpace=wrap;html=1;fontSize=9;" vertex="1" parent="V1QjoyrA2nP1wiMidViZ-121">
          <mxGeometry y="319" width="160" height="26" as="geometry" />
        </mxCell>
        <mxCell id="V1QjoyrA2nP1wiMidViZ-136" value="+ pubkierCours()" style="text;strokeColor=none;fillColor=none;align=left;verticalAlign=top;spacingLeft=4;spacingRight=4;overflow=hidden;rotatable=0;points=[[0,0.5],[1,0.5]];portConstraint=eastwest;whiteSpace=wrap;html=1;fontSize=9;" vertex="1" parent="V1QjoyrA2nP1wiMidViZ-121">
          <mxGeometry y="345" width="160" height="26" as="geometry" />
        </mxCell>
        <mxCell id="V1QjoyrA2nP1wiMidViZ-137" value="+ supprimerCours()" style="text;strokeColor=none;fillColor=none;align=left;verticalAlign=top;spacingLeft=4;spacingRight=4;overflow=hidden;rotatable=0;points=[[0,0.5],[1,0.5]];portConstraint=eastwest;whiteSpace=wrap;html=1;fontSize=9;" vertex="1" parent="V1QjoyrA2nP1wiMidViZ-121">
          <mxGeometry y="371" width="160" height="26" as="geometry" />
        </mxCell>
        <mxCell id="V1QjoyrA2nP1wiMidViZ-138" value="+ modifierCours()" style="text;strokeColor=none;fillColor=none;align=left;verticalAlign=top;spacingLeft=4;spacingRight=4;overflow=hidden;rotatable=0;points=[[0,0.5],[1,0.5]];portConstraint=eastwest;whiteSpace=wrap;html=1;fontSize=9;" vertex="1" parent="V1QjoyrA2nP1wiMidViZ-121">
          <mxGeometry y="397" width="160" height="26" as="geometry" />
        </mxCell>
        <mxCell id="V1QjoyrA2nP1wiMidViZ-139" value="&lt;font style=&quot;font-size: 12px;&quot;&gt;Paiement&lt;/font&gt;" style="swimlane;fontStyle=1;align=center;verticalAlign=top;childLayout=stackLayout;horizontal=1;startSize=26;horizontalStack=0;resizeParent=1;resizeParentMax=0;resizeLast=0;collapsible=1;marginBottom=0;whiteSpace=wrap;html=1;fontSize=9;" vertex="1" parent="WIyWlLk6GJQsqaUBKTNV-1">
          <mxGeometry x="1071" y="-720" width="117" height="242" as="geometry">
            <mxRectangle x="-9" y="-792" width="90" height="27" as="alternateBounds" />
          </mxGeometry>
        </mxCell>
        <mxCell id="V1QjoyrA2nP1wiMidViZ-140" value="- id" style="text;strokeColor=none;fillColor=none;align=left;verticalAlign=top;spacingLeft=4;spacingRight=4;overflow=hidden;rotatable=0;points=[[0,0.5],[1,0.5]];portConstraint=eastwest;whiteSpace=wrap;html=1;fontSize=9;" vertex="1" parent="V1QjoyrA2nP1wiMidViZ-139">
          <mxGeometry y="26" width="117" height="26" as="geometry" />
        </mxCell>
        <mxCell id="V1QjoyrA2nP1wiMidViZ-141" value="- montant" style="text;strokeColor=none;fillColor=none;align=left;verticalAlign=top;spacingLeft=4;spacingRight=4;overflow=hidden;rotatable=0;points=[[0,0.5],[1,0.5]];portConstraint=eastwest;whiteSpace=wrap;html=1;fontSize=9;" vertex="1" parent="V1QjoyrA2nP1wiMidViZ-139">
          <mxGeometry y="52" width="117" height="26" as="geometry" />
        </mxCell>
        <mxCell id="V1QjoyrA2nP1wiMidViZ-143" value="- date" style="text;strokeColor=none;fillColor=none;align=left;verticalAlign=top;spacingLeft=4;spacingRight=4;overflow=hidden;rotatable=0;points=[[0,0.5],[1,0.5]];portConstraint=eastwest;whiteSpace=wrap;html=1;fontSize=9;" vertex="1" parent="V1QjoyrA2nP1wiMidViZ-139">
          <mxGeometry y="78" width="117" height="26" as="geometry" />
        </mxCell>
        <mxCell id="V1QjoyrA2nP1wiMidViZ-144" value="- methode" style="text;strokeColor=none;fillColor=none;align=left;verticalAlign=top;spacingLeft=4;spacingRight=4;overflow=hidden;rotatable=0;points=[[0,0.5],[1,0.5]];portConstraint=eastwest;whiteSpace=wrap;html=1;fontSize=9;" vertex="1" parent="V1QjoyrA2nP1wiMidViZ-139">
          <mxGeometry y="104" width="117" height="26" as="geometry" />
        </mxCell>
        <mxCell id="V1QjoyrA2nP1wiMidViZ-145" value="- statut" style="text;strokeColor=none;fillColor=none;align=left;verticalAlign=top;spacingLeft=4;spacingRight=4;overflow=hidden;rotatable=0;points=[[0,0.5],[1,0.5]];portConstraint=eastwest;whiteSpace=wrap;html=1;fontSize=9;" vertex="1" parent="V1QjoyrA2nP1wiMidViZ-139">
          <mxGeometry y="130" width="117" height="26" as="geometry" />
        </mxCell>
        <mxCell id="V1QjoyrA2nP1wiMidViZ-146" value="- reference" style="text;strokeColor=none;fillColor=none;align=left;verticalAlign=top;spacingLeft=4;spacingRight=4;overflow=hidden;rotatable=0;points=[[0,0.5],[1,0.5]];portConstraint=eastwest;whiteSpace=wrap;html=1;fontSize=9;" vertex="1" parent="V1QjoyrA2nP1wiMidViZ-139">
          <mxGeometry y="156" width="117" height="26" as="geometry" />
        </mxCell>
        <mxCell id="V1QjoyrA2nP1wiMidViZ-150" value="" style="line;strokeWidth=1;fillColor=none;align=left;verticalAlign=middle;spacingTop=-1;spacingLeft=3;spacingRight=3;rotatable=0;labelPosition=right;points=[];portConstraint=eastwest;strokeColor=inherit;fontSize=9;" vertex="1" parent="V1QjoyrA2nP1wiMidViZ-139">
          <mxGeometry y="182" width="117" height="8" as="geometry" />
        </mxCell>
        <mxCell id="V1QjoyrA2nP1wiMidViZ-151" value="+ validerPaiement()" style="text;strokeColor=none;fillColor=none;align=left;verticalAlign=top;spacingLeft=4;spacingRight=4;overflow=hidden;rotatable=0;points=[[0,0.5],[1,0.5]];portConstraint=eastwest;whiteSpace=wrap;html=1;fontSize=9;" vertex="1" parent="V1QjoyrA2nP1wiMidViZ-139">
          <mxGeometry y="190" width="117" height="26" as="geometry" />
        </mxCell>
        <mxCell id="V1QjoyrA2nP1wiMidViZ-152" value="+ gereRecu()" style="text;strokeColor=none;fillColor=none;align=left;verticalAlign=top;spacingLeft=4;spacingRight=4;overflow=hidden;rotatable=0;points=[[0,0.5],[1,0.5]];portConstraint=eastwest;whiteSpace=wrap;html=1;fontSize=9;" vertex="1" parent="V1QjoyrA2nP1wiMidViZ-139">
          <mxGeometry y="216" width="117" height="26" as="geometry" />
        </mxCell>
        <mxCell id="V1QjoyrA2nP1wiMidViZ-156" value="&lt;font style=&quot;font-size: 12px;&quot;&gt;Classe&lt;/font&gt;" style="swimlane;fontStyle=1;align=center;verticalAlign=top;childLayout=stackLayout;horizontal=1;startSize=26;horizontalStack=0;resizeParent=1;resizeParentMax=0;resizeLast=0;collapsible=1;marginBottom=0;whiteSpace=wrap;html=1;fontSize=9;" vertex="1" parent="WIyWlLk6GJQsqaUBKTNV-1">
          <mxGeometry x="1071" y="-1620" width="160" height="216" as="geometry">
            <mxRectangle x="-9" y="-792" width="90" height="27" as="alternateBounds" />
          </mxGeometry>
        </mxCell>
        <mxCell id="V1QjoyrA2nP1wiMidViZ-157" value="- id" style="text;strokeColor=none;fillColor=none;align=left;verticalAlign=top;spacingLeft=4;spacingRight=4;overflow=hidden;rotatable=0;points=[[0,0.5],[1,0.5]];portConstraint=eastwest;whiteSpace=wrap;html=1;fontSize=9;" vertex="1" parent="V1QjoyrA2nP1wiMidViZ-156">
          <mxGeometry y="26" width="160" height="26" as="geometry" />
        </mxCell>
        <mxCell id="V1QjoyrA2nP1wiMidViZ-158" value="- nom" style="text;strokeColor=none;fillColor=none;align=left;verticalAlign=top;spacingLeft=4;spacingRight=4;overflow=hidden;rotatable=0;points=[[0,0.5],[1,0.5]];portConstraint=eastwest;whiteSpace=wrap;html=1;fontSize=9;" vertex="1" parent="V1QjoyrA2nP1wiMidViZ-156">
          <mxGeometry y="52" width="160" height="26" as="geometry" />
        </mxCell>
        <mxCell id="V1QjoyrA2nP1wiMidViZ-160" value="- etudiant" style="text;strokeColor=none;fillColor=none;align=left;verticalAlign=top;spacingLeft=4;spacingRight=4;overflow=hidden;rotatable=0;points=[[0,0.5],[1,0.5]];portConstraint=eastwest;whiteSpace=wrap;html=1;fontSize=9;" vertex="1" parent="V1QjoyrA2nP1wiMidViZ-156">
          <mxGeometry y="78" width="160" height="26" as="geometry" />
        </mxCell>
        <mxCell id="V1QjoyrA2nP1wiMidViZ-161" value="- cours" style="text;strokeColor=none;fillColor=none;align=left;verticalAlign=top;spacingLeft=4;spacingRight=4;overflow=hidden;rotatable=0;points=[[0,0.5],[1,0.5]];portConstraint=eastwest;whiteSpace=wrap;html=1;fontSize=9;" vertex="1" parent="V1QjoyrA2nP1wiMidViZ-156">
          <mxGeometry y="104" width="160" height="26" as="geometry" />
        </mxCell>
        <mxCell id="V1QjoyrA2nP1wiMidViZ-162" value="- emploitemps" style="text;strokeColor=none;fillColor=none;align=left;verticalAlign=top;spacingLeft=4;spacingRight=4;overflow=hidden;rotatable=0;points=[[0,0.5],[1,0.5]];portConstraint=eastwest;whiteSpace=wrap;html=1;fontSize=9;" vertex="1" parent="V1QjoyrA2nP1wiMidViZ-156">
          <mxGeometry y="130" width="160" height="26" as="geometry" />
        </mxCell>
        <mxCell id="V1QjoyrA2nP1wiMidViZ-167" value="" style="line;strokeWidth=1;fillColor=none;align=left;verticalAlign=middle;spacingTop=-1;spacingLeft=3;spacingRight=3;rotatable=0;labelPosition=right;points=[];portConstraint=eastwest;strokeColor=inherit;fontSize=9;" vertex="1" parent="V1QjoyrA2nP1wiMidViZ-156">
          <mxGeometry y="156" width="160" height="8" as="geometry" />
        </mxCell>
        <mxCell id="V1QjoyrA2nP1wiMidViZ-168" value="+ ajouterEtudiant()" style="text;strokeColor=none;fillColor=none;align=left;verticalAlign=top;spacingLeft=4;spacingRight=4;overflow=hidden;rotatable=0;points=[[0,0.5],[1,0.5]];portConstraint=eastwest;whiteSpace=wrap;html=1;fontSize=9;" vertex="1" parent="V1QjoyrA2nP1wiMidViZ-156">
          <mxGeometry y="164" width="160" height="26" as="geometry" />
        </mxCell>
        <mxCell id="V1QjoyrA2nP1wiMidViZ-169" value="+ ajouterCours()" style="text;strokeColor=none;fillColor=none;align=left;verticalAlign=top;spacingLeft=4;spacingRight=4;overflow=hidden;rotatable=0;points=[[0,0.5],[1,0.5]];portConstraint=eastwest;whiteSpace=wrap;html=1;fontSize=9;" vertex="1" parent="V1QjoyrA2nP1wiMidViZ-156">
          <mxGeometry y="190" width="160" height="26" as="geometry" />
        </mxCell>
        <mxCell id="V1QjoyrA2nP1wiMidViZ-173" value="&lt;font style=&quot;font-size: 12px;&quot;&gt;Niveau&lt;/font&gt;" style="swimlane;fontStyle=1;align=center;verticalAlign=top;childLayout=stackLayout;horizontal=1;startSize=26;horizontalStack=0;resizeParent=1;resizeParentMax=0;resizeLast=0;collapsible=1;marginBottom=0;whiteSpace=wrap;html=1;fontSize=9;" vertex="1" parent="WIyWlLk6GJQsqaUBKTNV-1">
          <mxGeometry x="1062" y="-2052" width="160" height="164" as="geometry">
            <mxRectangle x="-9" y="-792" width="90" height="27" as="alternateBounds" />
          </mxGeometry>
        </mxCell>
        <mxCell id="V1QjoyrA2nP1wiMidViZ-174" value="- id" style="text;strokeColor=none;fillColor=none;align=left;verticalAlign=top;spacingLeft=4;spacingRight=4;overflow=hidden;rotatable=0;points=[[0,0.5],[1,0.5]];portConstraint=eastwest;whiteSpace=wrap;html=1;fontSize=9;" vertex="1" parent="V1QjoyrA2nP1wiMidViZ-173">
          <mxGeometry y="26" width="160" height="26" as="geometry" />
        </mxCell>
        <mxCell id="V1QjoyrA2nP1wiMidViZ-175" value="- nom" style="text;strokeColor=none;fillColor=none;align=left;verticalAlign=top;spacingLeft=4;spacingRight=4;overflow=hidden;rotatable=0;points=[[0,0.5],[1,0.5]];portConstraint=eastwest;whiteSpace=wrap;html=1;fontSize=9;" vertex="1" parent="V1QjoyrA2nP1wiMidViZ-173">
          <mxGeometry y="52" width="160" height="26" as="geometry" />
        </mxCell>
        <mxCell id="V1QjoyrA2nP1wiMidViZ-177" value="- classes" style="text;strokeColor=none;fillColor=none;align=left;verticalAlign=top;spacingLeft=4;spacingRight=4;overflow=hidden;rotatable=0;points=[[0,0.5],[1,0.5]];portConstraint=eastwest;whiteSpace=wrap;html=1;fontSize=9;" vertex="1" parent="V1QjoyrA2nP1wiMidViZ-173">
          <mxGeometry y="78" width="160" height="26" as="geometry" />
        </mxCell>
        <mxCell id="V1QjoyrA2nP1wiMidViZ-184" value="" style="line;strokeWidth=1;fillColor=none;align=left;verticalAlign=middle;spacingTop=-1;spacingLeft=3;spacingRight=3;rotatable=0;labelPosition=right;points=[];portConstraint=eastwest;strokeColor=inherit;fontSize=9;" vertex="1" parent="V1QjoyrA2nP1wiMidViZ-173">
          <mxGeometry y="104" width="160" height="8" as="geometry" />
        </mxCell>
        <mxCell id="V1QjoyrA2nP1wiMidViZ-185" value="+ ajouterClasse()" style="text;strokeColor=none;fillColor=none;align=left;verticalAlign=top;spacingLeft=4;spacingRight=4;overflow=hidden;rotatable=0;points=[[0,0.5],[1,0.5]];portConstraint=eastwest;whiteSpace=wrap;html=1;fontSize=9;" vertex="1" parent="V1QjoyrA2nP1wiMidViZ-173">
          <mxGeometry y="112" width="160" height="26" as="geometry" />
        </mxCell>
        <mxCell id="V1QjoyrA2nP1wiMidViZ-186" value="+ supprimerClasse()" style="text;strokeColor=none;fillColor=none;align=left;verticalAlign=top;spacingLeft=4;spacingRight=4;overflow=hidden;rotatable=0;points=[[0,0.5],[1,0.5]];portConstraint=eastwest;whiteSpace=wrap;html=1;fontSize=9;" vertex="1" parent="V1QjoyrA2nP1wiMidViZ-173">
          <mxGeometry y="138" width="160" height="26" as="geometry" />
        </mxCell>
        <mxCell id="V1QjoyrA2nP1wiMidViZ-190" value="&lt;font style=&quot;font-size: 12px;&quot;&gt;Filiere&lt;/font&gt;" style="swimlane;fontStyle=1;align=center;verticalAlign=top;childLayout=stackLayout;horizontal=1;startSize=26;horizontalStack=0;resizeParent=1;resizeParentMax=0;resizeLast=0;collapsible=1;marginBottom=0;whiteSpace=wrap;html=1;fontSize=9;" vertex="1" parent="WIyWlLk6GJQsqaUBKTNV-1">
          <mxGeometry x="1062" y="-2457" width="160" height="216" as="geometry">
            <mxRectangle x="-9" y="-792" width="90" height="27" as="alternateBounds" />
          </mxGeometry>
        </mxCell>
        <mxCell id="V1QjoyrA2nP1wiMidViZ-191" value="- id" style="text;strokeColor=none;fillColor=none;align=left;verticalAlign=top;spacingLeft=4;spacingRight=4;overflow=hidden;rotatable=0;points=[[0,0.5],[1,0.5]];portConstraint=eastwest;whiteSpace=wrap;html=1;fontSize=9;" vertex="1" parent="V1QjoyrA2nP1wiMidViZ-190">
          <mxGeometry y="26" width="160" height="26" as="geometry" />
        </mxCell>
        <mxCell id="V1QjoyrA2nP1wiMidViZ-192" value="- nom" style="text;strokeColor=none;fillColor=none;align=left;verticalAlign=top;spacingLeft=4;spacingRight=4;overflow=hidden;rotatable=0;points=[[0,0.5],[1,0.5]];portConstraint=eastwest;whiteSpace=wrap;html=1;fontSize=9;" vertex="1" parent="V1QjoyrA2nP1wiMidViZ-190">
          <mxGeometry y="52" width="160" height="26" as="geometry" />
        </mxCell>
        <mxCell id="V1QjoyrA2nP1wiMidViZ-194" value="- description" style="text;strokeColor=none;fillColor=none;align=left;verticalAlign=top;spacingLeft=4;spacingRight=4;overflow=hidden;rotatable=0;points=[[0,0.5],[1,0.5]];portConstraint=eastwest;whiteSpace=wrap;html=1;fontSize=9;" vertex="1" parent="V1QjoyrA2nP1wiMidViZ-190">
          <mxGeometry y="78" width="160" height="26" as="geometry" />
        </mxCell>
        <mxCell id="V1QjoyrA2nP1wiMidViZ-195" value="- niveaux" style="text;strokeColor=none;fillColor=none;align=left;verticalAlign=top;spacingLeft=4;spacingRight=4;overflow=hidden;rotatable=0;points=[[0,0.5],[1,0.5]];portConstraint=eastwest;whiteSpace=wrap;html=1;fontSize=9;" vertex="1" parent="V1QjoyrA2nP1wiMidViZ-190">
          <mxGeometry y="104" width="160" height="26" as="geometry" />
        </mxCell>
        <mxCell id="V1QjoyrA2nP1wiMidViZ-196" value="- matieres" style="text;strokeColor=none;fillColor=none;align=left;verticalAlign=top;spacingLeft=4;spacingRight=4;overflow=hidden;rotatable=0;points=[[0,0.5],[1,0.5]];portConstraint=eastwest;whiteSpace=wrap;html=1;fontSize=9;" vertex="1" parent="V1QjoyrA2nP1wiMidViZ-190">
          <mxGeometry y="130" width="160" height="26" as="geometry" />
        </mxCell>
        <mxCell id="V1QjoyrA2nP1wiMidViZ-201" value="" style="line;strokeWidth=1;fillColor=none;align=left;verticalAlign=middle;spacingTop=-1;spacingLeft=3;spacingRight=3;rotatable=0;labelPosition=right;points=[];portConstraint=eastwest;strokeColor=inherit;fontSize=9;" vertex="1" parent="V1QjoyrA2nP1wiMidViZ-190">
          <mxGeometry y="156" width="160" height="8" as="geometry" />
        </mxCell>
        <mxCell id="V1QjoyrA2nP1wiMidViZ-202" value="+ ajouterNiveau(niveau)" style="text;strokeColor=none;fillColor=none;align=left;verticalAlign=top;spacingLeft=4;spacingRight=4;overflow=hidden;rotatable=0;points=[[0,0.5],[1,0.5]];portConstraint=eastwest;whiteSpace=wrap;html=1;fontSize=9;" vertex="1" parent="V1QjoyrA2nP1wiMidViZ-190">
          <mxGeometry y="164" width="160" height="26" as="geometry" />
        </mxCell>
        <mxCell id="V1QjoyrA2nP1wiMidViZ-203" value="+ ajouterMatiere(matiere)" style="text;strokeColor=none;fillColor=none;align=left;verticalAlign=top;spacingLeft=4;spacingRight=4;overflow=hidden;rotatable=0;points=[[0,0.5],[1,0.5]];portConstraint=eastwest;whiteSpace=wrap;html=1;fontSize=9;" vertex="1" parent="V1QjoyrA2nP1wiMidViZ-190">
          <mxGeometry y="190" width="160" height="26" as="geometry" />
        </mxCell>
        <mxCell id="V1QjoyrA2nP1wiMidViZ-207" value="&lt;font style=&quot;font-size: 12px;&quot;&gt;Chapitre&lt;/font&gt;" style="swimlane;fontStyle=1;align=center;verticalAlign=top;childLayout=stackLayout;horizontal=1;startSize=26;horizontalStack=0;resizeParent=1;resizeParentMax=0;resizeLast=0;collapsible=1;marginBottom=0;whiteSpace=wrap;html=1;fontSize=9;" vertex="1" parent="WIyWlLk6GJQsqaUBKTNV-1">
          <mxGeometry x="187" y="-99" width="99" height="242" as="geometry">
            <mxRectangle x="-9" y="-792" width="90" height="27" as="alternateBounds" />
          </mxGeometry>
        </mxCell>
        <mxCell id="V1QjoyrA2nP1wiMidViZ-208" value="- id" style="text;strokeColor=none;fillColor=none;align=left;verticalAlign=top;spacingLeft=4;spacingRight=4;overflow=hidden;rotatable=0;points=[[0,0.5],[1,0.5]];portConstraint=eastwest;whiteSpace=wrap;html=1;fontSize=9;" vertex="1" parent="V1QjoyrA2nP1wiMidViZ-207">
          <mxGeometry y="26" width="99" height="26" as="geometry" />
        </mxCell>
        <mxCell id="V1QjoyrA2nP1wiMidViZ-209" value="- titre" style="text;strokeColor=none;fillColor=none;align=left;verticalAlign=top;spacingLeft=4;spacingRight=4;overflow=hidden;rotatable=0;points=[[0,0.5],[1,0.5]];portConstraint=eastwest;whiteSpace=wrap;html=1;fontSize=9;" vertex="1" parent="V1QjoyrA2nP1wiMidViZ-207">
          <mxGeometry y="52" width="99" height="26" as="geometry" />
        </mxCell>
        <mxCell id="V1QjoyrA2nP1wiMidViZ-211" value="- description" style="text;strokeColor=none;fillColor=none;align=left;verticalAlign=top;spacingLeft=4;spacingRight=4;overflow=hidden;rotatable=0;points=[[0,0.5],[1,0.5]];portConstraint=eastwest;whiteSpace=wrap;html=1;fontSize=9;" vertex="1" parent="V1QjoyrA2nP1wiMidViZ-207">
          <mxGeometry y="78" width="99" height="26" as="geometry" />
        </mxCell>
        <mxCell id="V1QjoyrA2nP1wiMidViZ-212" value="- lecon" style="text;strokeColor=none;fillColor=none;align=left;verticalAlign=top;spacingLeft=4;spacingRight=4;overflow=hidden;rotatable=0;points=[[0,0.5],[1,0.5]];portConstraint=eastwest;whiteSpace=wrap;html=1;fontSize=9;" vertex="1" parent="V1QjoyrA2nP1wiMidViZ-207">
          <mxGeometry y="104" width="99" height="26" as="geometry" />
        </mxCell>
        <mxCell id="V1QjoyrA2nP1wiMidViZ-213" value="- ordre" style="text;strokeColor=none;fillColor=none;align=left;verticalAlign=top;spacingLeft=4;spacingRight=4;overflow=hidden;rotatable=0;points=[[0,0.5],[1,0.5]];portConstraint=eastwest;whiteSpace=wrap;html=1;fontSize=9;" vertex="1" parent="V1QjoyrA2nP1wiMidViZ-207">
          <mxGeometry y="130" width="99" height="26" as="geometry" />
        </mxCell>
        <mxCell id="V1QjoyrA2nP1wiMidViZ-218" value="" style="line;strokeWidth=1;fillColor=none;align=left;verticalAlign=middle;spacingTop=-1;spacingLeft=3;spacingRight=3;rotatable=0;labelPosition=right;points=[];portConstraint=eastwest;strokeColor=inherit;fontSize=9;" vertex="1" parent="V1QjoyrA2nP1wiMidViZ-207">
          <mxGeometry y="156" width="99" height="8" as="geometry" />
        </mxCell>
        <mxCell id="V1QjoyrA2nP1wiMidViZ-219" value="+ ajouterLecon()" style="text;strokeColor=none;fillColor=none;align=left;verticalAlign=top;spacingLeft=4;spacingRight=4;overflow=hidden;rotatable=0;points=[[0,0.5],[1,0.5]];portConstraint=eastwest;whiteSpace=wrap;html=1;fontSize=9;" vertex="1" parent="V1QjoyrA2nP1wiMidViZ-207">
          <mxGeometry y="164" width="99" height="26" as="geometry" />
        </mxCell>
        <mxCell id="V1QjoyrA2nP1wiMidViZ-220" value="+ ajouterChapitre()" style="text;strokeColor=none;fillColor=none;align=left;verticalAlign=top;spacingLeft=4;spacingRight=4;overflow=hidden;rotatable=0;points=[[0,0.5],[1,0.5]];portConstraint=eastwest;whiteSpace=wrap;html=1;fontSize=9;" vertex="1" parent="V1QjoyrA2nP1wiMidViZ-207">
          <mxGeometry y="190" width="99" height="26" as="geometry" />
        </mxCell>
        <mxCell id="V1QjoyrA2nP1wiMidViZ-221" value="+ supprimerChapitre()" style="text;strokeColor=none;fillColor=none;align=left;verticalAlign=top;spacingLeft=4;spacingRight=4;overflow=hidden;rotatable=0;points=[[0,0.5],[1,0.5]];portConstraint=eastwest;whiteSpace=wrap;html=1;fontSize=9;" vertex="1" parent="V1QjoyrA2nP1wiMidViZ-207">
          <mxGeometry y="216" width="99" height="26" as="geometry" />
        </mxCell>
        <mxCell id="V1QjoyrA2nP1wiMidViZ-224" value="&lt;font style=&quot;font-size: 12px;&quot;&gt;Forum&lt;/font&gt;" style="swimlane;fontStyle=1;align=center;verticalAlign=top;childLayout=stackLayout;horizontal=1;startSize=26;horizontalStack=0;resizeParent=1;resizeParentMax=0;resizeLast=0;collapsible=1;marginBottom=0;whiteSpace=wrap;html=1;fontSize=9;" vertex="1" parent="WIyWlLk6GJQsqaUBKTNV-1">
          <mxGeometry x="432" y="-99" width="144" height="242" as="geometry">
            <mxRectangle x="-9" y="-792" width="90" height="27" as="alternateBounds" />
          </mxGeometry>
        </mxCell>
        <mxCell id="V1QjoyrA2nP1wiMidViZ-225" value="- id" style="text;strokeColor=none;fillColor=none;align=left;verticalAlign=top;spacingLeft=4;spacingRight=4;overflow=hidden;rotatable=0;points=[[0,0.5],[1,0.5]];portConstraint=eastwest;whiteSpace=wrap;html=1;fontSize=9;" vertex="1" parent="V1QjoyrA2nP1wiMidViZ-224">
          <mxGeometry y="26" width="144" height="26" as="geometry" />
        </mxCell>
        <mxCell id="V1QjoyrA2nP1wiMidViZ-226" value="- titre" style="text;strokeColor=none;fillColor=none;align=left;verticalAlign=top;spacingLeft=4;spacingRight=4;overflow=hidden;rotatable=0;points=[[0,0.5],[1,0.5]];portConstraint=eastwest;whiteSpace=wrap;html=1;fontSize=9;" vertex="1" parent="V1QjoyrA2nP1wiMidViZ-224">
          <mxGeometry y="52" width="144" height="26" as="geometry" />
        </mxCell>
        <mxCell id="V1QjoyrA2nP1wiMidViZ-228" value="- discussion" style="text;strokeColor=none;fillColor=none;align=left;verticalAlign=top;spacingLeft=4;spacingRight=4;overflow=hidden;rotatable=0;points=[[0,0.5],[1,0.5]];portConstraint=eastwest;whiteSpace=wrap;html=1;fontSize=9;" vertex="1" parent="V1QjoyrA2nP1wiMidViZ-224">
          <mxGeometry y="78" width="144" height="26" as="geometry" />
        </mxCell>
        <mxCell id="V1QjoyrA2nP1wiMidViZ-229" value="- estModere" style="text;strokeColor=none;fillColor=none;align=left;verticalAlign=top;spacingLeft=4;spacingRight=4;overflow=hidden;rotatable=0;points=[[0,0.5],[1,0.5]];portConstraint=eastwest;whiteSpace=wrap;html=1;fontSize=9;" vertex="1" parent="V1QjoyrA2nP1wiMidViZ-224">
          <mxGeometry y="104" width="144" height="26" as="geometry" />
        </mxCell>
        <mxCell id="V1QjoyrA2nP1wiMidViZ-235" value="" style="line;strokeWidth=1;fillColor=none;align=left;verticalAlign=middle;spacingTop=-1;spacingLeft=3;spacingRight=3;rotatable=0;labelPosition=right;points=[];portConstraint=eastwest;strokeColor=inherit;fontSize=9;" vertex="1" parent="V1QjoyrA2nP1wiMidViZ-224">
          <mxGeometry y="130" width="144" height="8" as="geometry" />
        </mxCell>
        <mxCell id="V1QjoyrA2nP1wiMidViZ-236" value="+ creerDiscussion(discussion)" style="text;strokeColor=none;fillColor=none;align=left;verticalAlign=top;spacingLeft=4;spacingRight=4;overflow=hidden;rotatable=0;points=[[0,0.5],[1,0.5]];portConstraint=eastwest;whiteSpace=wrap;html=1;fontSize=9;" vertex="1" parent="V1QjoyrA2nP1wiMidViZ-224">
          <mxGeometry y="138" width="144" height="26" as="geometry" />
        </mxCell>
        <mxCell id="V1QjoyrA2nP1wiMidViZ-237" value="+ modererDiscussion(discussion)" style="text;strokeColor=none;fillColor=none;align=left;verticalAlign=top;spacingLeft=4;spacingRight=4;overflow=hidden;rotatable=0;points=[[0,0.5],[1,0.5]];portConstraint=eastwest;whiteSpace=wrap;html=1;fontSize=9;" vertex="1" parent="V1QjoyrA2nP1wiMidViZ-224">
          <mxGeometry y="164" width="144" height="26" as="geometry" />
        </mxCell>
        <mxCell id="V1QjoyrA2nP1wiMidViZ-238" value="+ repondre(discussion)" style="text;strokeColor=none;fillColor=none;align=left;verticalAlign=top;spacingLeft=4;spacingRight=4;overflow=hidden;rotatable=0;points=[[0,0.5],[1,0.5]];portConstraint=eastwest;whiteSpace=wrap;html=1;fontSize=9;" vertex="1" parent="V1QjoyrA2nP1wiMidViZ-224">
          <mxGeometry y="190" width="144" height="26" as="geometry" />
        </mxCell>
        <mxCell id="V1QjoyrA2nP1wiMidViZ-239" value="+ supprimerMessage(message)" style="text;strokeColor=none;fillColor=none;align=left;verticalAlign=top;spacingLeft=4;spacingRight=4;overflow=hidden;rotatable=0;points=[[0,0.5],[1,0.5]];portConstraint=eastwest;whiteSpace=wrap;html=1;fontSize=9;" vertex="1" parent="V1QjoyrA2nP1wiMidViZ-224">
          <mxGeometry y="216" width="144" height="26" as="geometry" />
        </mxCell>
        <mxCell id="V1QjoyrA2nP1wiMidViZ-241" value="&lt;font style=&quot;font-size: 12px;&quot;&gt;Quiz&lt;/font&gt;" style="swimlane;fontStyle=1;align=center;verticalAlign=top;childLayout=stackLayout;horizontal=1;startSize=26;horizontalStack=0;resizeParent=1;resizeParentMax=0;resizeLast=0;collapsible=1;marginBottom=0;whiteSpace=wrap;html=1;fontSize=9;" vertex="1" parent="WIyWlLk6GJQsqaUBKTNV-1">
          <mxGeometry x="936" y="-99" width="160" height="372" as="geometry">
            <mxRectangle x="-9" y="-792" width="90" height="27" as="alternateBounds" />
          </mxGeometry>
        </mxCell>
        <mxCell id="V1QjoyrA2nP1wiMidViZ-242" value="- id" style="text;strokeColor=none;fillColor=none;align=left;verticalAlign=top;spacingLeft=4;spacingRight=4;overflow=hidden;rotatable=0;points=[[0,0.5],[1,0.5]];portConstraint=eastwest;whiteSpace=wrap;html=1;fontSize=9;" vertex="1" parent="V1QjoyrA2nP1wiMidViZ-241">
          <mxGeometry y="26" width="160" height="26" as="geometry" />
        </mxCell>
        <mxCell id="V1QjoyrA2nP1wiMidViZ-243" value="- titre" style="text;strokeColor=none;fillColor=none;align=left;verticalAlign=top;spacingLeft=4;spacingRight=4;overflow=hidden;rotatable=0;points=[[0,0.5],[1,0.5]];portConstraint=eastwest;whiteSpace=wrap;html=1;fontSize=9;" vertex="1" parent="V1QjoyrA2nP1wiMidViZ-241">
          <mxGeometry y="52" width="160" height="26" as="geometry" />
        </mxCell>
        <mxCell id="V1QjoyrA2nP1wiMidViZ-244" value="&lt;div&gt;- description&lt;/div&gt;" style="text;strokeColor=none;fillColor=none;align=left;verticalAlign=top;spacingLeft=4;spacingRight=4;overflow=hidden;rotatable=0;points=[[0,0.5],[1,0.5]];portConstraint=eastwest;whiteSpace=wrap;html=1;fontSize=9;" vertex="1" parent="V1QjoyrA2nP1wiMidViZ-241">
          <mxGeometry y="78" width="160" height="26" as="geometry" />
        </mxCell>
        <mxCell id="V1QjoyrA2nP1wiMidViZ-245" value="- nbTentativesMax" style="text;strokeColor=none;fillColor=none;align=left;verticalAlign=top;spacingLeft=4;spacingRight=4;overflow=hidden;rotatable=0;points=[[0,0.5],[1,0.5]];portConstraint=eastwest;whiteSpace=wrap;html=1;fontSize=9;" vertex="1" parent="V1QjoyrA2nP1wiMidViZ-241">
          <mxGeometry y="104" width="160" height="26" as="geometry" />
        </mxCell>
        <mxCell id="V1QjoyrA2nP1wiMidViZ-246" value="- question" style="text;strokeColor=none;fillColor=none;align=left;verticalAlign=top;spacingLeft=4;spacingRight=4;overflow=hidden;rotatable=0;points=[[0,0.5],[1,0.5]];portConstraint=eastwest;whiteSpace=wrap;html=1;fontSize=9;" vertex="1" parent="V1QjoyrA2nP1wiMidViZ-241">
          <mxGeometry y="130" width="160" height="26" as="geometry" />
        </mxCell>
        <mxCell id="V1QjoyrA2nP1wiMidViZ-247" value="- dateOuverture" style="text;strokeColor=none;fillColor=none;align=left;verticalAlign=top;spacingLeft=4;spacingRight=4;overflow=hidden;rotatable=0;points=[[0,0.5],[1,0.5]];portConstraint=eastwest;whiteSpace=wrap;html=1;fontSize=9;" vertex="1" parent="V1QjoyrA2nP1wiMidViZ-241">
          <mxGeometry y="156" width="160" height="26" as="geometry" />
        </mxCell>
        <mxCell id="V1QjoyrA2nP1wiMidViZ-248" value="- dateFermeture" style="text;strokeColor=none;fillColor=none;align=left;verticalAlign=top;spacingLeft=4;spacingRight=4;overflow=hidden;rotatable=0;points=[[0,0.5],[1,0.5]];portConstraint=eastwest;whiteSpace=wrap;html=1;fontSize=9;" vertex="1" parent="V1QjoyrA2nP1wiMidViZ-241">
          <mxGeometry y="182" width="160" height="26" as="geometry" />
        </mxCell>
        <mxCell id="V1QjoyrA2nP1wiMidViZ-249" value="- duree" style="text;strokeColor=none;fillColor=none;align=left;verticalAlign=top;spacingLeft=4;spacingRight=4;overflow=hidden;rotatable=0;points=[[0,0.5],[1,0.5]];portConstraint=eastwest;whiteSpace=wrap;html=1;fontSize=9;" vertex="1" parent="V1QjoyrA2nP1wiMidViZ-241">
          <mxGeometry y="208" width="160" height="26" as="geometry" />
        </mxCell>
        <mxCell id="V1QjoyrA2nP1wiMidViZ-250" value="- notePassage" style="text;strokeColor=none;fillColor=none;align=left;verticalAlign=top;spacingLeft=4;spacingRight=4;overflow=hidden;rotatable=0;points=[[0,0.5],[1,0.5]];portConstraint=eastwest;whiteSpace=wrap;html=1;fontSize=9;" vertex="1" parent="V1QjoyrA2nP1wiMidViZ-241">
          <mxGeometry y="234" width="160" height="26" as="geometry" />
        </mxCell>
        <mxCell id="V1QjoyrA2nP1wiMidViZ-252" value="" style="line;strokeWidth=1;fillColor=none;align=left;verticalAlign=middle;spacingTop=-1;spacingLeft=3;spacingRight=3;rotatable=0;labelPosition=right;points=[];portConstraint=eastwest;strokeColor=inherit;fontSize=9;" vertex="1" parent="V1QjoyrA2nP1wiMidViZ-241">
          <mxGeometry y="260" width="160" height="8" as="geometry" />
        </mxCell>
        <mxCell id="V1QjoyrA2nP1wiMidViZ-253" value="+ ajouterQuestion(question)" style="text;strokeColor=none;fillColor=none;align=left;verticalAlign=top;spacingLeft=4;spacingRight=4;overflow=hidden;rotatable=0;points=[[0,0.5],[1,0.5]];portConstraint=eastwest;whiteSpace=wrap;html=1;fontSize=9;" vertex="1" parent="V1QjoyrA2nP1wiMidViZ-241">
          <mxGeometry y="268" width="160" height="26" as="geometry" />
        </mxCell>
        <mxCell id="V1QjoyrA2nP1wiMidViZ-254" value="+ modifierQuiz()" style="text;strokeColor=none;fillColor=none;align=left;verticalAlign=top;spacingLeft=4;spacingRight=4;overflow=hidden;rotatable=0;points=[[0,0.5],[1,0.5]];portConstraint=eastwest;whiteSpace=wrap;html=1;fontSize=9;" vertex="1" parent="V1QjoyrA2nP1wiMidViZ-241">
          <mxGeometry y="294" width="160" height="26" as="geometry" />
        </mxCell>
        <mxCell id="V1QjoyrA2nP1wiMidViZ-255" value="+ corrigerAutomatiquement()" style="text;strokeColor=none;fillColor=none;align=left;verticalAlign=top;spacingLeft=4;spacingRight=4;overflow=hidden;rotatable=0;points=[[0,0.5],[1,0.5]];portConstraint=eastwest;whiteSpace=wrap;html=1;fontSize=9;" vertex="1" parent="V1QjoyrA2nP1wiMidViZ-241">
          <mxGeometry y="320" width="160" height="26" as="geometry" />
        </mxCell>
        <mxCell id="V1QjoyrA2nP1wiMidViZ-256" value="+ publierResultat()" style="text;strokeColor=none;fillColor=none;align=left;verticalAlign=top;spacingLeft=4;spacingRight=4;overflow=hidden;rotatable=0;points=[[0,0.5],[1,0.5]];portConstraint=eastwest;whiteSpace=wrap;html=1;fontSize=9;" vertex="1" parent="V1QjoyrA2nP1wiMidViZ-241">
          <mxGeometry y="346" width="160" height="26" as="geometry" />
        </mxCell>
        <mxCell id="V1QjoyrA2nP1wiMidViZ-258" value="&lt;span style=&quot;font-size: 12px;&quot;&gt;Devoir&lt;/span&gt;" style="swimlane;fontStyle=1;align=center;verticalAlign=top;childLayout=stackLayout;horizontal=1;startSize=26;horizontalStack=0;resizeParent=1;resizeParentMax=0;resizeLast=0;collapsible=1;marginBottom=0;whiteSpace=wrap;html=1;fontSize=9;" vertex="1" parent="WIyWlLk6GJQsqaUBKTNV-1">
          <mxGeometry x="1323" y="-72" width="160" height="294" as="geometry">
            <mxRectangle x="-9" y="-792" width="90" height="27" as="alternateBounds" />
          </mxGeometry>
        </mxCell>
        <mxCell id="V1QjoyrA2nP1wiMidViZ-259" value="- id" style="text;strokeColor=none;fillColor=none;align=left;verticalAlign=top;spacingLeft=4;spacingRight=4;overflow=hidden;rotatable=0;points=[[0,0.5],[1,0.5]];portConstraint=eastwest;whiteSpace=wrap;html=1;fontSize=9;" vertex="1" parent="V1QjoyrA2nP1wiMidViZ-258">
          <mxGeometry y="26" width="160" height="26" as="geometry" />
        </mxCell>
        <mxCell id="V1QjoyrA2nP1wiMidViZ-260" value="- description" style="text;strokeColor=none;fillColor=none;align=left;verticalAlign=top;spacingLeft=4;spacingRight=4;overflow=hidden;rotatable=0;points=[[0,0.5],[1,0.5]];portConstraint=eastwest;whiteSpace=wrap;html=1;fontSize=9;" vertex="1" parent="V1QjoyrA2nP1wiMidViZ-258">
          <mxGeometry y="52" width="160" height="26" as="geometry" />
        </mxCell>
        <mxCell id="V1QjoyrA2nP1wiMidViZ-262" value="- titre" style="text;strokeColor=none;fillColor=none;align=left;verticalAlign=top;spacingLeft=4;spacingRight=4;overflow=hidden;rotatable=0;points=[[0,0.5],[1,0.5]];portConstraint=eastwest;whiteSpace=wrap;html=1;fontSize=9;" vertex="1" parent="V1QjoyrA2nP1wiMidViZ-258">
          <mxGeometry y="78" width="160" height="26" as="geometry" />
        </mxCell>
        <mxCell id="V1QjoyrA2nP1wiMidViZ-263" value="- dateRemise" style="text;strokeColor=none;fillColor=none;align=left;verticalAlign=top;spacingLeft=4;spacingRight=4;overflow=hidden;rotatable=0;points=[[0,0.5],[1,0.5]];portConstraint=eastwest;whiteSpace=wrap;html=1;fontSize=9;" vertex="1" parent="V1QjoyrA2nP1wiMidViZ-258">
          <mxGeometry y="104" width="160" height="26" as="geometry" />
        </mxCell>
        <mxCell id="V1QjoyrA2nP1wiMidViZ-264" value="- soumission" style="text;strokeColor=none;fillColor=none;align=left;verticalAlign=top;spacingLeft=4;spacingRight=4;overflow=hidden;rotatable=0;points=[[0,0.5],[1,0.5]];portConstraint=eastwest;whiteSpace=wrap;html=1;fontSize=9;" vertex="1" parent="V1QjoyrA2nP1wiMidViZ-258">
          <mxGeometry y="130" width="160" height="26" as="geometry" />
        </mxCell>
        <mxCell id="V1QjoyrA2nP1wiMidViZ-265" value="- noteMax" style="text;strokeColor=none;fillColor=none;align=left;verticalAlign=top;spacingLeft=4;spacingRight=4;overflow=hidden;rotatable=0;points=[[0,0.5],[1,0.5]];portConstraint=eastwest;whiteSpace=wrap;html=1;fontSize=9;" vertex="1" parent="V1QjoyrA2nP1wiMidViZ-258">
          <mxGeometry y="156" width="160" height="26" as="geometry" />
        </mxCell>
        <mxCell id="V1QjoyrA2nP1wiMidViZ-269" value="" style="line;strokeWidth=1;fillColor=none;align=left;verticalAlign=middle;spacingTop=-1;spacingLeft=3;spacingRight=3;rotatable=0;labelPosition=right;points=[];portConstraint=eastwest;strokeColor=inherit;fontSize=9;" vertex="1" parent="V1QjoyrA2nP1wiMidViZ-258">
          <mxGeometry y="182" width="160" height="8" as="geometry" />
        </mxCell>
        <mxCell id="V1QjoyrA2nP1wiMidViZ-270" value="+ creerDevoir()" style="text;strokeColor=none;fillColor=none;align=left;verticalAlign=top;spacingLeft=4;spacingRight=4;overflow=hidden;rotatable=0;points=[[0,0.5],[1,0.5]];portConstraint=eastwest;whiteSpace=wrap;html=1;fontSize=9;" vertex="1" parent="V1QjoyrA2nP1wiMidViZ-258">
          <mxGeometry y="190" width="160" height="26" as="geometry" />
        </mxCell>
        <mxCell id="V1QjoyrA2nP1wiMidViZ-271" value="+ modifierDevoir()" style="text;strokeColor=none;fillColor=none;align=left;verticalAlign=top;spacingLeft=4;spacingRight=4;overflow=hidden;rotatable=0;points=[[0,0.5],[1,0.5]];portConstraint=eastwest;whiteSpace=wrap;html=1;fontSize=9;" vertex="1" parent="V1QjoyrA2nP1wiMidViZ-258">
          <mxGeometry y="216" width="160" height="26" as="geometry" />
        </mxCell>
        <mxCell id="V1QjoyrA2nP1wiMidViZ-272" value="+ noterSoumission()" style="text;strokeColor=none;fillColor=none;align=left;verticalAlign=top;spacingLeft=4;spacingRight=4;overflow=hidden;rotatable=0;points=[[0,0.5],[1,0.5]];portConstraint=eastwest;whiteSpace=wrap;html=1;fontSize=9;" vertex="1" parent="V1QjoyrA2nP1wiMidViZ-258">
          <mxGeometry y="242" width="160" height="26" as="geometry" />
        </mxCell>
        <mxCell id="V1QjoyrA2nP1wiMidViZ-273" value="+ publierNotes()" style="text;strokeColor=none;fillColor=none;align=left;verticalAlign=top;spacingLeft=4;spacingRight=4;overflow=hidden;rotatable=0;points=[[0,0.5],[1,0.5]];portConstraint=eastwest;whiteSpace=wrap;html=1;fontSize=9;" vertex="1" parent="V1QjoyrA2nP1wiMidViZ-258">
          <mxGeometry y="268" width="160" height="26" as="geometry" />
        </mxCell>
        <mxCell id="V1QjoyrA2nP1wiMidViZ-275" value="&lt;font style=&quot;font-size: 12px;&quot;&gt;Lecon&lt;/font&gt;" style="swimlane;fontStyle=1;align=center;verticalAlign=top;childLayout=stackLayout;horizontal=1;startSize=26;horizontalStack=0;resizeParent=1;resizeParentMax=0;resizeLast=0;collapsible=1;marginBottom=0;whiteSpace=wrap;html=1;fontSize=9;" vertex="1" parent="WIyWlLk6GJQsqaUBKTNV-1">
          <mxGeometry x="81" y="324" width="160" height="242" as="geometry">
            <mxRectangle x="-9" y="-792" width="90" height="27" as="alternateBounds" />
          </mxGeometry>
        </mxCell>
        <mxCell id="V1QjoyrA2nP1wiMidViZ-276" value="- id" style="text;strokeColor=none;fillColor=none;align=left;verticalAlign=top;spacingLeft=4;spacingRight=4;overflow=hidden;rotatable=0;points=[[0,0.5],[1,0.5]];portConstraint=eastwest;whiteSpace=wrap;html=1;fontSize=9;" vertex="1" parent="V1QjoyrA2nP1wiMidViZ-275">
          <mxGeometry y="26" width="160" height="26" as="geometry" />
        </mxCell>
        <mxCell id="V1QjoyrA2nP1wiMidViZ-277" value="- titre" style="text;strokeColor=none;fillColor=none;align=left;verticalAlign=top;spacingLeft=4;spacingRight=4;overflow=hidden;rotatable=0;points=[[0,0.5],[1,0.5]];portConstraint=eastwest;whiteSpace=wrap;html=1;fontSize=9;" vertex="1" parent="V1QjoyrA2nP1wiMidViZ-275">
          <mxGeometry y="52" width="160" height="26" as="geometry" />
        </mxCell>
        <mxCell id="V1QjoyrA2nP1wiMidViZ-279" value="- description" style="text;strokeColor=none;fillColor=none;align=left;verticalAlign=top;spacingLeft=4;spacingRight=4;overflow=hidden;rotatable=0;points=[[0,0.5],[1,0.5]];portConstraint=eastwest;whiteSpace=wrap;html=1;fontSize=9;" vertex="1" parent="V1QjoyrA2nP1wiMidViZ-275">
          <mxGeometry y="78" width="160" height="26" as="geometry" />
        </mxCell>
        <mxCell id="V1QjoyrA2nP1wiMidViZ-280" value="- contenu" style="text;strokeColor=none;fillColor=none;align=left;verticalAlign=top;spacingLeft=4;spacingRight=4;overflow=hidden;rotatable=0;points=[[0,0.5],[1,0.5]];portConstraint=eastwest;whiteSpace=wrap;html=1;fontSize=9;" vertex="1" parent="V1QjoyrA2nP1wiMidViZ-275">
          <mxGeometry y="104" width="160" height="26" as="geometry" />
        </mxCell>
        <mxCell id="V1QjoyrA2nP1wiMidViZ-281" value="- dureeEstimee" style="text;strokeColor=none;fillColor=none;align=left;verticalAlign=top;spacingLeft=4;spacingRight=4;overflow=hidden;rotatable=0;points=[[0,0.5],[1,0.5]];portConstraint=eastwest;whiteSpace=wrap;html=1;fontSize=9;" vertex="1" parent="V1QjoyrA2nP1wiMidViZ-275">
          <mxGeometry y="130" width="160" height="26" as="geometry" />
        </mxCell>
        <mxCell id="V1QjoyrA2nP1wiMidViZ-286" value="" style="line;strokeWidth=1;fillColor=none;align=left;verticalAlign=middle;spacingTop=-1;spacingLeft=3;spacingRight=3;rotatable=0;labelPosition=right;points=[];portConstraint=eastwest;strokeColor=inherit;fontSize=9;" vertex="1" parent="V1QjoyrA2nP1wiMidViZ-275">
          <mxGeometry y="156" width="160" height="8" as="geometry" />
        </mxCell>
        <mxCell id="V1QjoyrA2nP1wiMidViZ-287" value="+ ajouterContenu(contenu)" style="text;strokeColor=none;fillColor=none;align=left;verticalAlign=top;spacingLeft=4;spacingRight=4;overflow=hidden;rotatable=0;points=[[0,0.5],[1,0.5]];portConstraint=eastwest;whiteSpace=wrap;html=1;fontSize=9;" vertex="1" parent="V1QjoyrA2nP1wiMidViZ-275">
          <mxGeometry y="164" width="160" height="26" as="geometry" />
        </mxCell>
        <mxCell id="V1QjoyrA2nP1wiMidViZ-288" value="+ modifierLecon()" style="text;strokeColor=none;fillColor=none;align=left;verticalAlign=top;spacingLeft=4;spacingRight=4;overflow=hidden;rotatable=0;points=[[0,0.5],[1,0.5]];portConstraint=eastwest;whiteSpace=wrap;html=1;fontSize=9;" vertex="1" parent="V1QjoyrA2nP1wiMidViZ-275">
          <mxGeometry y="190" width="160" height="26" as="geometry" />
        </mxCell>
        <mxCell id="V1QjoyrA2nP1wiMidViZ-289" value="+ supprimerLecon()" style="text;strokeColor=none;fillColor=none;align=left;verticalAlign=top;spacingLeft=4;spacingRight=4;overflow=hidden;rotatable=0;points=[[0,0.5],[1,0.5]];portConstraint=eastwest;whiteSpace=wrap;html=1;fontSize=9;" vertex="1" parent="V1QjoyrA2nP1wiMidViZ-275">
          <mxGeometry y="216" width="160" height="26" as="geometry" />
        </mxCell>
        <mxCell id="V1QjoyrA2nP1wiMidViZ-292" value="&lt;font style=&quot;font-size: 12px;&quot;&gt;Discussion&lt;/font&gt;" style="swimlane;fontStyle=1;align=center;verticalAlign=top;childLayout=stackLayout;horizontal=1;startSize=26;horizontalStack=0;resizeParent=1;resizeParentMax=0;resizeLast=0;collapsible=1;marginBottom=0;whiteSpace=wrap;html=1;fontSize=9;" vertex="1" parent="WIyWlLk6GJQsqaUBKTNV-1">
          <mxGeometry x="432" y="324" width="160" height="268" as="geometry">
            <mxRectangle x="-9" y="-792" width="90" height="27" as="alternateBounds" />
          </mxGeometry>
        </mxCell>
        <mxCell id="V1QjoyrA2nP1wiMidViZ-293" value="- id" style="text;strokeColor=none;fillColor=none;align=left;verticalAlign=top;spacingLeft=4;spacingRight=4;overflow=hidden;rotatable=0;points=[[0,0.5],[1,0.5]];portConstraint=eastwest;whiteSpace=wrap;html=1;fontSize=9;" vertex="1" parent="V1QjoyrA2nP1wiMidViZ-292">
          <mxGeometry y="26" width="160" height="26" as="geometry" />
        </mxCell>
        <mxCell id="V1QjoyrA2nP1wiMidViZ-294" value="- titre" style="text;strokeColor=none;fillColor=none;align=left;verticalAlign=top;spacingLeft=4;spacingRight=4;overflow=hidden;rotatable=0;points=[[0,0.5],[1,0.5]];portConstraint=eastwest;whiteSpace=wrap;html=1;fontSize=9;" vertex="1" parent="V1QjoyrA2nP1wiMidViZ-292">
          <mxGeometry y="52" width="160" height="26" as="geometry" />
        </mxCell>
        <mxCell id="V1QjoyrA2nP1wiMidViZ-296" value="- contenu" style="text;strokeColor=none;fillColor=none;align=left;verticalAlign=top;spacingLeft=4;spacingRight=4;overflow=hidden;rotatable=0;points=[[0,0.5],[1,0.5]];portConstraint=eastwest;whiteSpace=wrap;html=1;fontSize=9;" vertex="1" parent="V1QjoyrA2nP1wiMidViZ-292">
          <mxGeometry y="78" width="160" height="26" as="geometry" />
        </mxCell>
        <mxCell id="V1QjoyrA2nP1wiMidViZ-297" value="- reponse" style="text;strokeColor=none;fillColor=none;align=left;verticalAlign=top;spacingLeft=4;spacingRight=4;overflow=hidden;rotatable=0;points=[[0,0.5],[1,0.5]];portConstraint=eastwest;whiteSpace=wrap;html=1;fontSize=9;" vertex="1" parent="V1QjoyrA2nP1wiMidViZ-292">
          <mxGeometry y="104" width="160" height="26" as="geometry" />
        </mxCell>
        <mxCell id="V1QjoyrA2nP1wiMidViZ-298" value="- dateCreation" style="text;strokeColor=none;fillColor=none;align=left;verticalAlign=top;spacingLeft=4;spacingRight=4;overflow=hidden;rotatable=0;points=[[0,0.5],[1,0.5]];portConstraint=eastwest;whiteSpace=wrap;html=1;fontSize=9;" vertex="1" parent="V1QjoyrA2nP1wiMidViZ-292">
          <mxGeometry y="130" width="160" height="26" as="geometry" />
        </mxCell>
        <mxCell id="V1QjoyrA2nP1wiMidViZ-299" value="- Utilisateur auteur" style="text;strokeColor=none;fillColor=none;align=left;verticalAlign=top;spacingLeft=4;spacingRight=4;overflow=hidden;rotatable=0;points=[[0,0.5],[1,0.5]];portConstraint=eastwest;whiteSpace=wrap;html=1;fontSize=9;" vertex="1" parent="V1QjoyrA2nP1wiMidViZ-292">
          <mxGeometry y="156" width="160" height="26" as="geometry" />
        </mxCell>
        <mxCell id="V1QjoyrA2nP1wiMidViZ-303" value="" style="line;strokeWidth=1;fillColor=none;align=left;verticalAlign=middle;spacingTop=-1;spacingLeft=3;spacingRight=3;rotatable=0;labelPosition=right;points=[];portConstraint=eastwest;strokeColor=inherit;fontSize=9;" vertex="1" parent="V1QjoyrA2nP1wiMidViZ-292">
          <mxGeometry y="182" width="160" height="8" as="geometry" />
        </mxCell>
        <mxCell id="V1QjoyrA2nP1wiMidViZ-304" value="+ ajouterReponse(reponse)" style="text;strokeColor=none;fillColor=none;align=left;verticalAlign=top;spacingLeft=4;spacingRight=4;overflow=hidden;rotatable=0;points=[[0,0.5],[1,0.5]];portConstraint=eastwest;whiteSpace=wrap;html=1;fontSize=9;" vertex="1" parent="V1QjoyrA2nP1wiMidViZ-292">
          <mxGeometry y="190" width="160" height="26" as="geometry" />
        </mxCell>
        <mxCell id="V1QjoyrA2nP1wiMidViZ-305" value="+ modifierDiscussion()" style="text;strokeColor=none;fillColor=none;align=left;verticalAlign=top;spacingLeft=4;spacingRight=4;overflow=hidden;rotatable=0;points=[[0,0.5],[1,0.5]];portConstraint=eastwest;whiteSpace=wrap;html=1;fontSize=9;" vertex="1" parent="V1QjoyrA2nP1wiMidViZ-292">
          <mxGeometry y="216" width="160" height="26" as="geometry" />
        </mxCell>
        <mxCell id="V1QjoyrA2nP1wiMidViZ-306" value="+ supprimerDiscussion()" style="text;strokeColor=none;fillColor=none;align=left;verticalAlign=top;spacingLeft=4;spacingRight=4;overflow=hidden;rotatable=0;points=[[0,0.5],[1,0.5]];portConstraint=eastwest;whiteSpace=wrap;html=1;fontSize=9;" vertex="1" parent="V1QjoyrA2nP1wiMidViZ-292">
          <mxGeometry y="242" width="160" height="26" as="geometry" />
        </mxCell>
        <mxCell id="V1QjoyrA2nP1wiMidViZ-309" value="&lt;font style=&quot;font-size: 12px;&quot;&gt;Chat&lt;/font&gt;" style="swimlane;fontStyle=1;align=center;verticalAlign=top;childLayout=stackLayout;horizontal=1;startSize=26;horizontalStack=0;resizeParent=1;resizeParentMax=0;resizeLast=0;collapsible=1;marginBottom=0;whiteSpace=wrap;html=1;fontSize=9;" vertex="1" parent="WIyWlLk6GJQsqaUBKTNV-1">
          <mxGeometry x="767" y="441" width="160" height="216" as="geometry">
            <mxRectangle x="-9" y="-792" width="90" height="27" as="alternateBounds" />
          </mxGeometry>
        </mxCell>
        <mxCell id="V1QjoyrA2nP1wiMidViZ-310" value="- id" style="text;strokeColor=none;fillColor=none;align=left;verticalAlign=top;spacingLeft=4;spacingRight=4;overflow=hidden;rotatable=0;points=[[0,0.5],[1,0.5]];portConstraint=eastwest;whiteSpace=wrap;html=1;fontSize=9;" vertex="1" parent="V1QjoyrA2nP1wiMidViZ-309">
          <mxGeometry y="26" width="160" height="26" as="geometry" />
        </mxCell>
        <mxCell id="V1QjoyrA2nP1wiMidViZ-311" value="- message" style="text;strokeColor=none;fillColor=none;align=left;verticalAlign=top;spacingLeft=4;spacingRight=4;overflow=hidden;rotatable=0;points=[[0,0.5],[1,0.5]];portConstraint=eastwest;whiteSpace=wrap;html=1;fontSize=9;" vertex="1" parent="V1QjoyrA2nP1wiMidViZ-309">
          <mxGeometry y="52" width="160" height="26" as="geometry" />
        </mxCell>
        <mxCell id="V1QjoyrA2nP1wiMidViZ-313" value="- estPrive" style="text;strokeColor=none;fillColor=none;align=left;verticalAlign=top;spacingLeft=4;spacingRight=4;overflow=hidden;rotatable=0;points=[[0,0.5],[1,0.5]];portConstraint=eastwest;whiteSpace=wrap;html=1;fontSize=9;" vertex="1" parent="V1QjoyrA2nP1wiMidViZ-309">
          <mxGeometry y="78" width="160" height="26" as="geometry" />
        </mxCell>
        <mxCell id="V1QjoyrA2nP1wiMidViZ-314" value="- participant" style="text;strokeColor=none;fillColor=none;align=left;verticalAlign=top;spacingLeft=4;spacingRight=4;overflow=hidden;rotatable=0;points=[[0,0.5],[1,0.5]];portConstraint=eastwest;whiteSpace=wrap;html=1;fontSize=9;" vertex="1" parent="V1QjoyrA2nP1wiMidViZ-309">
          <mxGeometry y="104" width="160" height="26" as="geometry" />
        </mxCell>
        <mxCell id="V1QjoyrA2nP1wiMidViZ-320" value="" style="line;strokeWidth=1;fillColor=none;align=left;verticalAlign=middle;spacingTop=-1;spacingLeft=3;spacingRight=3;rotatable=0;labelPosition=right;points=[];portConstraint=eastwest;strokeColor=inherit;fontSize=9;" vertex="1" parent="V1QjoyrA2nP1wiMidViZ-309">
          <mxGeometry y="130" width="160" height="8" as="geometry" />
        </mxCell>
        <mxCell id="V1QjoyrA2nP1wiMidViZ-321" value="+ envoyerMessage(message)" style="text;strokeColor=none;fillColor=none;align=left;verticalAlign=top;spacingLeft=4;spacingRight=4;overflow=hidden;rotatable=0;points=[[0,0.5],[1,0.5]];portConstraint=eastwest;whiteSpace=wrap;html=1;fontSize=9;" vertex="1" parent="V1QjoyrA2nP1wiMidViZ-309">
          <mxGeometry y="138" width="160" height="26" as="geometry" />
        </mxCell>
        <mxCell id="V1QjoyrA2nP1wiMidViZ-322" value="+ supprimerMessage(message)" style="text;strokeColor=none;fillColor=none;align=left;verticalAlign=top;spacingLeft=4;spacingRight=4;overflow=hidden;rotatable=0;points=[[0,0.5],[1,0.5]];portConstraint=eastwest;whiteSpace=wrap;html=1;fontSize=9;" vertex="1" parent="V1QjoyrA2nP1wiMidViZ-309">
          <mxGeometry y="164" width="160" height="26" as="geometry" />
        </mxCell>
        <mxCell id="V1QjoyrA2nP1wiMidViZ-323" value="+ ajouterParticipant(utilisateur)" style="text;strokeColor=none;fillColor=none;align=left;verticalAlign=top;spacingLeft=4;spacingRight=4;overflow=hidden;rotatable=0;points=[[0,0.5],[1,0.5]];portConstraint=eastwest;whiteSpace=wrap;html=1;fontSize=9;" vertex="1" parent="V1QjoyrA2nP1wiMidViZ-309">
          <mxGeometry y="190" width="160" height="26" as="geometry" />
        </mxCell>
        <mxCell id="V1QjoyrA2nP1wiMidViZ-326" value="&lt;font style=&quot;font-size: 12px;&quot;&gt;Question&lt;/font&gt;" style="swimlane;fontStyle=1;align=center;verticalAlign=top;childLayout=stackLayout;horizontal=1;startSize=26;horizontalStack=0;resizeParent=1;resizeParentMax=0;resizeLast=0;collapsible=1;marginBottom=0;whiteSpace=wrap;html=1;fontSize=9;" vertex="1" parent="WIyWlLk6GJQsqaUBKTNV-1">
          <mxGeometry x="1314" y="405" width="160" height="242" as="geometry">
            <mxRectangle x="-9" y="-792" width="90" height="27" as="alternateBounds" />
          </mxGeometry>
        </mxCell>
        <mxCell id="V1QjoyrA2nP1wiMidViZ-327" value="- id" style="text;strokeColor=none;fillColor=none;align=left;verticalAlign=top;spacingLeft=4;spacingRight=4;overflow=hidden;rotatable=0;points=[[0,0.5],[1,0.5]];portConstraint=eastwest;whiteSpace=wrap;html=1;fontSize=9;" vertex="1" parent="V1QjoyrA2nP1wiMidViZ-326">
          <mxGeometry y="26" width="160" height="26" as="geometry" />
        </mxCell>
        <mxCell id="V1QjoyrA2nP1wiMidViZ-328" value="- enonce" style="text;strokeColor=none;fillColor=none;align=left;verticalAlign=top;spacingLeft=4;spacingRight=4;overflow=hidden;rotatable=0;points=[[0,0.5],[1,0.5]];portConstraint=eastwest;whiteSpace=wrap;html=1;fontSize=9;" vertex="1" parent="V1QjoyrA2nP1wiMidViZ-326">
          <mxGeometry y="52" width="160" height="26" as="geometry" />
        </mxCell>
        <mxCell id="V1QjoyrA2nP1wiMidViZ-330" value="- reponse" style="text;strokeColor=none;fillColor=none;align=left;verticalAlign=top;spacingLeft=4;spacingRight=4;overflow=hidden;rotatable=0;points=[[0,0.5],[1,0.5]];portConstraint=eastwest;whiteSpace=wrap;html=1;fontSize=9;" vertex="1" parent="V1QjoyrA2nP1wiMidViZ-326">
          <mxGeometry y="78" width="160" height="26" as="geometry" />
        </mxCell>
        <mxCell id="V1QjoyrA2nP1wiMidViZ-331" value="- point" style="text;strokeColor=none;fillColor=none;align=left;verticalAlign=top;spacingLeft=4;spacingRight=4;overflow=hidden;rotatable=0;points=[[0,0.5],[1,0.5]];portConstraint=eastwest;whiteSpace=wrap;html=1;fontSize=9;" vertex="1" parent="V1QjoyrA2nP1wiMidViZ-326">
          <mxGeometry y="104" width="160" height="26" as="geometry" />
        </mxCell>
        <mxCell id="V1QjoyrA2nP1wiMidViZ-332" value="- type" style="text;strokeColor=none;fillColor=none;align=left;verticalAlign=top;spacingLeft=4;spacingRight=4;overflow=hidden;rotatable=0;points=[[0,0.5],[1,0.5]];portConstraint=eastwest;whiteSpace=wrap;html=1;fontSize=9;" vertex="1" parent="V1QjoyrA2nP1wiMidViZ-326">
          <mxGeometry y="130" width="160" height="26" as="geometry" />
        </mxCell>
        <mxCell id="V1QjoyrA2nP1wiMidViZ-337" value="" style="line;strokeWidth=1;fillColor=none;align=left;verticalAlign=middle;spacingTop=-1;spacingLeft=3;spacingRight=3;rotatable=0;labelPosition=right;points=[];portConstraint=eastwest;strokeColor=inherit;fontSize=9;" vertex="1" parent="V1QjoyrA2nP1wiMidViZ-326">
          <mxGeometry y="156" width="160" height="8" as="geometry" />
        </mxCell>
        <mxCell id="V1QjoyrA2nP1wiMidViZ-338" value="+ ajouterReponse(reponse)" style="text;strokeColor=none;fillColor=none;align=left;verticalAlign=top;spacingLeft=4;spacingRight=4;overflow=hidden;rotatable=0;points=[[0,0.5],[1,0.5]];portConstraint=eastwest;whiteSpace=wrap;html=1;fontSize=9;" vertex="1" parent="V1QjoyrA2nP1wiMidViZ-326">
          <mxGeometry y="164" width="160" height="26" as="geometry" />
        </mxCell>
        <mxCell id="V1QjoyrA2nP1wiMidViZ-339" value="+ modifierQuestion()" style="text;strokeColor=none;fillColor=none;align=left;verticalAlign=top;spacingLeft=4;spacingRight=4;overflow=hidden;rotatable=0;points=[[0,0.5],[1,0.5]];portConstraint=eastwest;whiteSpace=wrap;html=1;fontSize=9;" vertex="1" parent="V1QjoyrA2nP1wiMidViZ-326">
          <mxGeometry y="190" width="160" height="26" as="geometry" />
        </mxCell>
        <mxCell id="V1QjoyrA2nP1wiMidViZ-340" value="+ verifierReponse(reponse)" style="text;strokeColor=none;fillColor=none;align=left;verticalAlign=top;spacingLeft=4;spacingRight=4;overflow=hidden;rotatable=0;points=[[0,0.5],[1,0.5]];portConstraint=eastwest;whiteSpace=wrap;html=1;fontSize=9;" vertex="1" parent="V1QjoyrA2nP1wiMidViZ-326">
          <mxGeometry y="216" width="160" height="26" as="geometry" />
        </mxCell>
        <mxCell id="V1QjoyrA2nP1wiMidViZ-343" value="&lt;font style=&quot;font-size: 12px;&quot;&gt;Note&lt;/font&gt;" style="swimlane;fontStyle=1;align=center;verticalAlign=top;childLayout=stackLayout;horizontal=1;startSize=26;horizontalStack=0;resizeParent=1;resizeParentMax=0;resizeLast=0;collapsible=1;marginBottom=0;whiteSpace=wrap;html=1;fontSize=9;" vertex="1" parent="WIyWlLk6GJQsqaUBKTNV-1">
          <mxGeometry x="1710" y="405" width="160" height="216" as="geometry">
            <mxRectangle x="-9" y="-792" width="90" height="27" as="alternateBounds" />
          </mxGeometry>
        </mxCell>
        <mxCell id="V1QjoyrA2nP1wiMidViZ-344" value="- id" style="text;strokeColor=none;fillColor=none;align=left;verticalAlign=top;spacingLeft=4;spacingRight=4;overflow=hidden;rotatable=0;points=[[0,0.5],[1,0.5]];portConstraint=eastwest;whiteSpace=wrap;html=1;fontSize=9;" vertex="1" parent="V1QjoyrA2nP1wiMidViZ-343">
          <mxGeometry y="26" width="160" height="26" as="geometry" />
        </mxCell>
        <mxCell id="V1QjoyrA2nP1wiMidViZ-345" value="- valeur" style="text;strokeColor=none;fillColor=none;align=left;verticalAlign=top;spacingLeft=4;spacingRight=4;overflow=hidden;rotatable=0;points=[[0,0.5],[1,0.5]];portConstraint=eastwest;whiteSpace=wrap;html=1;fontSize=9;" vertex="1" parent="V1QjoyrA2nP1wiMidViZ-343">
          <mxGeometry y="52" width="160" height="26" as="geometry" />
        </mxCell>
        <mxCell id="V1QjoyrA2nP1wiMidViZ-347" value="- commentaire" style="text;strokeColor=none;fillColor=none;align=left;verticalAlign=top;spacingLeft=4;spacingRight=4;overflow=hidden;rotatable=0;points=[[0,0.5],[1,0.5]];portConstraint=eastwest;whiteSpace=wrap;html=1;fontSize=9;" vertex="1" parent="V1QjoyrA2nP1wiMidViZ-343">
          <mxGeometry y="78" width="160" height="26" as="geometry" />
        </mxCell>
        <mxCell id="V1QjoyrA2nP1wiMidViZ-348" value="- type" style="text;strokeColor=none;fillColor=none;align=left;verticalAlign=top;spacingLeft=4;spacingRight=4;overflow=hidden;rotatable=0;points=[[0,0.5],[1,0.5]];portConstraint=eastwest;whiteSpace=wrap;html=1;fontSize=9;" vertex="1" parent="V1QjoyrA2nP1wiMidViZ-343">
          <mxGeometry y="104" width="160" height="26" as="geometry" />
        </mxCell>
        <mxCell id="V1QjoyrA2nP1wiMidViZ-349" value="- date" style="text;strokeColor=none;fillColor=none;align=left;verticalAlign=top;spacingLeft=4;spacingRight=4;overflow=hidden;rotatable=0;points=[[0,0.5],[1,0.5]];portConstraint=eastwest;whiteSpace=wrap;html=1;fontSize=9;" vertex="1" parent="V1QjoyrA2nP1wiMidViZ-343">
          <mxGeometry y="130" width="160" height="26" as="geometry" />
        </mxCell>
        <mxCell id="V1QjoyrA2nP1wiMidViZ-354" value="" style="line;strokeWidth=1;fillColor=none;align=left;verticalAlign=middle;spacingTop=-1;spacingLeft=3;spacingRight=3;rotatable=0;labelPosition=right;points=[];portConstraint=eastwest;strokeColor=inherit;fontSize=9;" vertex="1" parent="V1QjoyrA2nP1wiMidViZ-343">
          <mxGeometry y="156" width="160" height="8" as="geometry" />
        </mxCell>
        <mxCell id="V1QjoyrA2nP1wiMidViZ-355" value="+ callculerMoyenne()" style="text;strokeColor=none;fillColor=none;align=left;verticalAlign=top;spacingLeft=4;spacingRight=4;overflow=hidden;rotatable=0;points=[[0,0.5],[1,0.5]];portConstraint=eastwest;whiteSpace=wrap;html=1;fontSize=9;" vertex="1" parent="V1QjoyrA2nP1wiMidViZ-343">
          <mxGeometry y="164" width="160" height="26" as="geometry" />
        </mxCell>
        <mxCell id="V1QjoyrA2nP1wiMidViZ-356" value="+ modifierNote()" style="text;strokeColor=none;fillColor=none;align=left;verticalAlign=top;spacingLeft=4;spacingRight=4;overflow=hidden;rotatable=0;points=[[0,0.5],[1,0.5]];portConstraint=eastwest;whiteSpace=wrap;html=1;fontSize=9;" vertex="1" parent="V1QjoyrA2nP1wiMidViZ-343">
          <mxGeometry y="190" width="160" height="26" as="geometry" />
        </mxCell>
        <mxCell id="V1QjoyrA2nP1wiMidViZ-360" value="&lt;font style=&quot;font-size: 12px;&quot;&gt;Contenu&lt;/font&gt;" style="swimlane;fontStyle=1;align=center;verticalAlign=top;childLayout=stackLayout;horizontal=1;startSize=26;horizontalStack=0;resizeParent=1;resizeParentMax=0;resizeLast=0;collapsible=1;marginBottom=0;whiteSpace=wrap;html=1;fontSize=9;" vertex="1" parent="WIyWlLk6GJQsqaUBKTNV-1">
          <mxGeometry x="135" y="747" width="160" height="346" as="geometry">
            <mxRectangle x="-9" y="-792" width="90" height="27" as="alternateBounds" />
          </mxGeometry>
        </mxCell>
        <mxCell id="V1QjoyrA2nP1wiMidViZ-361" value="- id" style="text;strokeColor=none;fillColor=none;align=left;verticalAlign=top;spacingLeft=4;spacingRight=4;overflow=hidden;rotatable=0;points=[[0,0.5],[1,0.5]];portConstraint=eastwest;whiteSpace=wrap;html=1;fontSize=9;" vertex="1" parent="V1QjoyrA2nP1wiMidViZ-360">
          <mxGeometry y="26" width="160" height="26" as="geometry" />
        </mxCell>
        <mxCell id="V1QjoyrA2nP1wiMidViZ-362" value="- type" style="text;strokeColor=none;fillColor=none;align=left;verticalAlign=top;spacingLeft=4;spacingRight=4;overflow=hidden;rotatable=0;points=[[0,0.5],[1,0.5]];portConstraint=eastwest;whiteSpace=wrap;html=1;fontSize=9;" vertex="1" parent="V1QjoyrA2nP1wiMidViZ-360">
          <mxGeometry y="52" width="160" height="26" as="geometry" />
        </mxCell>
        <mxCell id="V1QjoyrA2nP1wiMidViZ-364" value="- titre" style="text;strokeColor=none;fillColor=none;align=left;verticalAlign=top;spacingLeft=4;spacingRight=4;overflow=hidden;rotatable=0;points=[[0,0.5],[1,0.5]];portConstraint=eastwest;whiteSpace=wrap;html=1;fontSize=9;" vertex="1" parent="V1QjoyrA2nP1wiMidViZ-360">
          <mxGeometry y="78" width="160" height="26" as="geometry" />
        </mxCell>
        <mxCell id="V1QjoyrA2nP1wiMidViZ-365" value="- description" style="text;strokeColor=none;fillColor=none;align=left;verticalAlign=top;spacingLeft=4;spacingRight=4;overflow=hidden;rotatable=0;points=[[0,0.5],[1,0.5]];portConstraint=eastwest;whiteSpace=wrap;html=1;fontSize=9;" vertex="1" parent="V1QjoyrA2nP1wiMidViZ-360">
          <mxGeometry y="104" width="160" height="26" as="geometry" />
        </mxCell>
        <mxCell id="V1QjoyrA2nP1wiMidViZ-366" value="- contenu" style="text;strokeColor=none;fillColor=none;align=left;verticalAlign=top;spacingLeft=4;spacingRight=4;overflow=hidden;rotatable=0;points=[[0,0.5],[1,0.5]];portConstraint=eastwest;whiteSpace=wrap;html=1;fontSize=9;" vertex="1" parent="V1QjoyrA2nP1wiMidViZ-360">
          <mxGeometry y="130" width="160" height="26" as="geometry" />
        </mxCell>
        <mxCell id="V1QjoyrA2nP1wiMidViZ-367" value="- formatFichier" style="text;strokeColor=none;fillColor=none;align=left;verticalAlign=top;spacingLeft=4;spacingRight=4;overflow=hidden;rotatable=0;points=[[0,0.5],[1,0.5]];portConstraint=eastwest;whiteSpace=wrap;html=1;fontSize=9;" vertex="1" parent="V1QjoyrA2nP1wiMidViZ-360">
          <mxGeometry y="156" width="160" height="26" as="geometry" />
        </mxCell>
        <mxCell id="V1QjoyrA2nP1wiMidViZ-368" value="- tailleFichier" style="text;strokeColor=none;fillColor=none;align=left;verticalAlign=top;spacingLeft=4;spacingRight=4;overflow=hidden;rotatable=0;points=[[0,0.5],[1,0.5]];portConstraint=eastwest;whiteSpace=wrap;html=1;fontSize=9;" vertex="1" parent="V1QjoyrA2nP1wiMidViZ-360">
          <mxGeometry y="182" width="160" height="26" as="geometry" />
        </mxCell>
        <mxCell id="V1QjoyrA2nP1wiMidViZ-369" value="- dateCreation" style="text;strokeColor=none;fillColor=none;align=left;verticalAlign=top;spacingLeft=4;spacingRight=4;overflow=hidden;rotatable=0;points=[[0,0.5],[1,0.5]];portConstraint=eastwest;whiteSpace=wrap;html=1;fontSize=9;" vertex="1" parent="V1QjoyrA2nP1wiMidViZ-360">
          <mxGeometry y="208" width="160" height="26" as="geometry" />
        </mxCell>
        <mxCell id="V1QjoyrA2nP1wiMidViZ-370" value="- dateModification" style="text;strokeColor=none;fillColor=none;align=left;verticalAlign=top;spacingLeft=4;spacingRight=4;overflow=hidden;rotatable=0;points=[[0,0.5],[1,0.5]];portConstraint=eastwest;whiteSpace=wrap;html=1;fontSize=9;" vertex="1" parent="V1QjoyrA2nP1wiMidViZ-360">
          <mxGeometry y="234" width="160" height="26" as="geometry" />
        </mxCell>
        <mxCell id="V1QjoyrA2nP1wiMidViZ-371" value="" style="line;strokeWidth=1;fillColor=none;align=left;verticalAlign=middle;spacingTop=-1;spacingLeft=3;spacingRight=3;rotatable=0;labelPosition=right;points=[];portConstraint=eastwest;strokeColor=inherit;fontSize=9;" vertex="1" parent="V1QjoyrA2nP1wiMidViZ-360">
          <mxGeometry y="260" width="160" height="8" as="geometry" />
        </mxCell>
        <mxCell id="V1QjoyrA2nP1wiMidViZ-372" value="+ modifierContenu()" style="text;strokeColor=none;fillColor=none;align=left;verticalAlign=top;spacingLeft=4;spacingRight=4;overflow=hidden;rotatable=0;points=[[0,0.5],[1,0.5]];portConstraint=eastwest;whiteSpace=wrap;html=1;fontSize=9;" vertex="1" parent="V1QjoyrA2nP1wiMidViZ-360">
          <mxGeometry y="268" width="160" height="26" as="geometry" />
        </mxCell>
        <mxCell id="V1QjoyrA2nP1wiMidViZ-373" value="+ supprimerContenu()" style="text;strokeColor=none;fillColor=none;align=left;verticalAlign=top;spacingLeft=4;spacingRight=4;overflow=hidden;rotatable=0;points=[[0,0.5],[1,0.5]];portConstraint=eastwest;whiteSpace=wrap;html=1;fontSize=9;" vertex="1" parent="V1QjoyrA2nP1wiMidViZ-360">
          <mxGeometry y="294" width="160" height="26" as="geometry" />
        </mxCell>
        <mxCell id="V1QjoyrA2nP1wiMidViZ-374" value="+ telecharger()" style="text;strokeColor=none;fillColor=none;align=left;verticalAlign=top;spacingLeft=4;spacingRight=4;overflow=hidden;rotatable=0;points=[[0,0.5],[1,0.5]];portConstraint=eastwest;whiteSpace=wrap;html=1;fontSize=9;" vertex="1" parent="V1QjoyrA2nP1wiMidViZ-360">
          <mxGeometry y="320" width="160" height="26" as="geometry" />
        </mxCell>
        <mxCell id="V1QjoyrA2nP1wiMidViZ-377" value="&lt;font style=&quot;font-size: 12px;&quot;&gt;Message&lt;/font&gt;" style="swimlane;fontStyle=1;align=center;verticalAlign=top;childLayout=stackLayout;horizontal=1;startSize=26;horizontalStack=0;resizeParent=1;resizeParentMax=0;resizeLast=0;collapsible=1;marginBottom=0;whiteSpace=wrap;html=1;fontSize=9;" vertex="1" parent="WIyWlLk6GJQsqaUBKTNV-1">
          <mxGeometry x="573" y="873" width="160" height="242" as="geometry">
            <mxRectangle x="-9" y="-792" width="90" height="27" as="alternateBounds" />
          </mxGeometry>
        </mxCell>
        <mxCell id="V1QjoyrA2nP1wiMidViZ-378" value="- id" style="text;strokeColor=none;fillColor=none;align=left;verticalAlign=top;spacingLeft=4;spacingRight=4;overflow=hidden;rotatable=0;points=[[0,0.5],[1,0.5]];portConstraint=eastwest;whiteSpace=wrap;html=1;fontSize=9;" vertex="1" parent="V1QjoyrA2nP1wiMidViZ-377">
          <mxGeometry y="26" width="160" height="26" as="geometry" />
        </mxCell>
        <mxCell id="V1QjoyrA2nP1wiMidViZ-379" value="- contenu" style="text;strokeColor=none;fillColor=none;align=left;verticalAlign=top;spacingLeft=4;spacingRight=4;overflow=hidden;rotatable=0;points=[[0,0.5],[1,0.5]];portConstraint=eastwest;whiteSpace=wrap;html=1;fontSize=9;" vertex="1" parent="V1QjoyrA2nP1wiMidViZ-377">
          <mxGeometry y="52" width="160" height="26" as="geometry" />
        </mxCell>
        <mxCell id="V1QjoyrA2nP1wiMidViZ-381" value="- dateEnvoi" style="text;strokeColor=none;fillColor=none;align=left;verticalAlign=top;spacingLeft=4;spacingRight=4;overflow=hidden;rotatable=0;points=[[0,0.5],[1,0.5]];portConstraint=eastwest;whiteSpace=wrap;html=1;fontSize=9;" vertex="1" parent="V1QjoyrA2nP1wiMidViZ-377">
          <mxGeometry y="78" width="160" height="26" as="geometry" />
        </mxCell>
        <mxCell id="V1QjoyrA2nP1wiMidViZ-382" value="- expediteur" style="text;strokeColor=none;fillColor=none;align=left;verticalAlign=top;spacingLeft=4;spacingRight=4;overflow=hidden;rotatable=0;points=[[0,0.5],[1,0.5]];portConstraint=eastwest;whiteSpace=wrap;html=1;fontSize=9;" vertex="1" parent="V1QjoyrA2nP1wiMidViZ-377">
          <mxGeometry y="104" width="160" height="26" as="geometry" />
        </mxCell>
        <mxCell id="V1QjoyrA2nP1wiMidViZ-383" value="- estLu" style="text;strokeColor=none;fillColor=none;align=left;verticalAlign=top;spacingLeft=4;spacingRight=4;overflow=hidden;rotatable=0;points=[[0,0.5],[1,0.5]];portConstraint=eastwest;whiteSpace=wrap;html=1;fontSize=9;" vertex="1" parent="V1QjoyrA2nP1wiMidViZ-377">
          <mxGeometry y="130" width="160" height="26" as="geometry" />
        </mxCell>
        <mxCell id="V1QjoyrA2nP1wiMidViZ-388" value="" style="line;strokeWidth=1;fillColor=none;align=left;verticalAlign=middle;spacingTop=-1;spacingLeft=3;spacingRight=3;rotatable=0;labelPosition=right;points=[];portConstraint=eastwest;strokeColor=inherit;fontSize=9;" vertex="1" parent="V1QjoyrA2nP1wiMidViZ-377">
          <mxGeometry y="156" width="160" height="8" as="geometry" />
        </mxCell>
        <mxCell id="V1QjoyrA2nP1wiMidViZ-389" value="+ marquerCommeLu()" style="text;strokeColor=none;fillColor=none;align=left;verticalAlign=top;spacingLeft=4;spacingRight=4;overflow=hidden;rotatable=0;points=[[0,0.5],[1,0.5]];portConstraint=eastwest;whiteSpace=wrap;html=1;fontSize=9;" vertex="1" parent="V1QjoyrA2nP1wiMidViZ-377">
          <mxGeometry y="164" width="160" height="26" as="geometry" />
        </mxCell>
        <mxCell id="V1QjoyrA2nP1wiMidViZ-390" value="+ modifier()" style="text;strokeColor=none;fillColor=none;align=left;verticalAlign=top;spacingLeft=4;spacingRight=4;overflow=hidden;rotatable=0;points=[[0,0.5],[1,0.5]];portConstraint=eastwest;whiteSpace=wrap;html=1;fontSize=9;" vertex="1" parent="V1QjoyrA2nP1wiMidViZ-377">
          <mxGeometry y="190" width="160" height="26" as="geometry" />
        </mxCell>
        <mxCell id="V1QjoyrA2nP1wiMidViZ-391" value="+ supprimer()" style="text;strokeColor=none;fillColor=none;align=left;verticalAlign=top;spacingLeft=4;spacingRight=4;overflow=hidden;rotatable=0;points=[[0,0.5],[1,0.5]];portConstraint=eastwest;whiteSpace=wrap;html=1;fontSize=9;" vertex="1" parent="V1QjoyrA2nP1wiMidViZ-377">
          <mxGeometry y="216" width="160" height="26" as="geometry" />
        </mxCell>
        <mxCell id="V1QjoyrA2nP1wiMidViZ-397" value="" style="curved=1;endArrow=classic;html=1;rounded=0;exitX=0;exitY=0.5;exitDx=0;exitDy=0;entryX=0;entryY=0.5;entryDx=0;entryDy=0;" edge="1" parent="WIyWlLk6GJQsqaUBKTNV-1" source="V1QjoyrA2nP1wiMidViZ-38" target="V1QjoyrA2nP1wiMidViZ-13">
          <mxGeometry width="50" height="50" relative="1" as="geometry">
            <mxPoint x="-369" y="-1498" as="sourcePoint" />
            <mxPoint x="-319" y="-1548" as="targetPoint" />
            <Array as="points">
              <mxPoint x="-319" y="-1498" />
              <mxPoint x="-369" y="-1548" />
            </Array>
          </mxGeometry>
        </mxCell>
        <mxCell id="V1QjoyrA2nP1wiMidViZ-399" value="" style="endArrow=classic;html=1;rounded=0;entryX=1;entryY=0.5;entryDx=0;entryDy=0;exitX=0.165;exitY=-0.006;exitDx=0;exitDy=0;exitPerimeter=0;" edge="1" parent="WIyWlLk6GJQsqaUBKTNV-1" source="V1QjoyrA2nP1wiMidViZ-63" target="V1QjoyrA2nP1wiMidViZ-18">
          <mxGeometry width="50" height="50" relative="1" as="geometry">
            <mxPoint x="387" y="-1498" as="sourcePoint" />
            <mxPoint x="437" y="-1548" as="targetPoint" />
            <Array as="points">
              <mxPoint x="270" y="-1485" />
            </Array>
          </mxGeometry>
        </mxCell>
        <mxCell id="V1QjoyrA2nP1wiMidViZ-402" value="" style="endArrow=classic;html=1;rounded=0;exitX=0.25;exitY=0;exitDx=0;exitDy=0;" edge="1" parent="WIyWlLk6GJQsqaUBKTNV-1" source="V1QjoyrA2nP1wiMidViZ-43" target="V1QjoyrA2nP1wiMidViZ-24">
          <mxGeometry width="50" height="50" relative="1" as="geometry">
            <mxPoint x="387" y="-1498" as="sourcePoint" />
            <mxPoint x="437" y="-1548" as="targetPoint" />
            <Array as="points">
              <mxPoint x="81" y="-1431" />
            </Array>
          </mxGeometry>
        </mxCell>
        <mxCell id="V1QjoyrA2nP1wiMidViZ-403" value="" style="curved=1;endArrow=classic;html=1;rounded=0;entryX=1;entryY=0.5;entryDx=0;entryDy=0;exitX=0.5;exitY=0;exitDx=0;exitDy=0;" edge="1" parent="WIyWlLk6GJQsqaUBKTNV-1" source="V1QjoyrA2nP1wiMidViZ-81" target="V1QjoyrA2nP1wiMidViZ-14">
          <mxGeometry width="50" height="50" relative="1" as="geometry">
            <mxPoint x="711" y="-1215" as="sourcePoint" />
            <mxPoint x="189" y="-1764" as="targetPoint" />
            <Array as="points">
              <mxPoint x="747" y="-1296" />
              <mxPoint x="702" y="-1377" />
              <mxPoint x="639" y="-1539" />
              <mxPoint x="387" y="-1485" />
            </Array>
          </mxGeometry>
        </mxCell>
        <mxCell id="V1QjoyrA2nP1wiMidViZ-404" value="" style="curved=1;endArrow=classic;html=1;rounded=0;exitX=0.406;exitY=0.002;exitDx=0;exitDy=0;exitPerimeter=0;entryX=1;entryY=0.5;entryDx=0;entryDy=0;" edge="1" parent="WIyWlLk6GJQsqaUBKTNV-1" source="V1QjoyrA2nP1wiMidViZ-102" target="V1QjoyrA2nP1wiMidViZ-12">
          <mxGeometry width="50" height="50" relative="1" as="geometry">
            <mxPoint x="1046" y="-1215" as="sourcePoint" />
            <mxPoint x="905" y="-1512" as="targetPoint" />
            <Array as="points">
              <mxPoint x="905" y="-1462" />
              <mxPoint x="855" y="-1512" />
            </Array>
          </mxGeometry>
        </mxCell>
        <mxCell id="V1QjoyrA2nP1wiMidViZ-407" value="contient" style="text;html=1;align=center;verticalAlign=middle;whiteSpace=wrap;rounded=0;" vertex="1" parent="WIyWlLk6GJQsqaUBKTNV-1">
          <mxGeometry x="1112" y="-1314" width="60" height="30" as="geometry" />
        </mxCell>
        <mxCell id="V1QjoyrA2nP1wiMidViZ-408" value="*" style="text;html=1;align=center;verticalAlign=middle;whiteSpace=wrap;rounded=0;" vertex="1" parent="WIyWlLk6GJQsqaUBKTNV-1">
          <mxGeometry x="1081" y="-1233" width="60" height="30" as="geometry" />
        </mxCell>
        <mxCell id="V1QjoyrA2nP1wiMidViZ-409" value="1" style="text;html=1;align=center;verticalAlign=middle;whiteSpace=wrap;rounded=0;" vertex="1" parent="WIyWlLk6GJQsqaUBKTNV-1">
          <mxGeometry x="1128" y="-1404" width="60" height="30" as="geometry" />
        </mxCell>
        <mxCell id="V1QjoyrA2nP1wiMidViZ-411" value="comprend" style="text;html=1;align=center;verticalAlign=middle;whiteSpace=wrap;rounded=0;" vertex="1" parent="WIyWlLk6GJQsqaUBKTNV-1">
          <mxGeometry x="1152" y="-1773" width="60" height="27" as="geometry" />
        </mxCell>
        <mxCell id="V1QjoyrA2nP1wiMidViZ-412" value="*" style="text;html=1;align=center;verticalAlign=middle;whiteSpace=wrap;rounded=0;" vertex="1" parent="WIyWlLk6GJQsqaUBKTNV-1">
          <mxGeometry x="1141" y="-1647" width="60" height="30" as="geometry" />
        </mxCell>
        <mxCell id="V1QjoyrA2nP1wiMidViZ-413" value="1" style="text;html=1;align=center;verticalAlign=middle;whiteSpace=wrap;rounded=0;" vertex="1" parent="WIyWlLk6GJQsqaUBKTNV-1">
          <mxGeometry x="1128" y="-1881" width="60" height="30" as="geometry" />
        </mxCell>
        <mxCell id="V1QjoyrA2nP1wiMidViZ-415" value="organise" style="text;html=1;align=center;verticalAlign=middle;whiteSpace=wrap;rounded=0;" vertex="1" parent="WIyWlLk6GJQsqaUBKTNV-1">
          <mxGeometry x="1134" y="-2169" width="60" height="30" as="geometry" />
        </mxCell>
        <mxCell id="V1QjoyrA2nP1wiMidViZ-416" value="*" style="text;html=1;align=center;verticalAlign=middle;whiteSpace=wrap;rounded=0;" vertex="1" parent="WIyWlLk6GJQsqaUBKTNV-1">
          <mxGeometry x="1121" y="-2082" width="60" height="30" as="geometry" />
        </mxCell>
        <mxCell id="V1QjoyrA2nP1wiMidViZ-417" value="1" style="text;html=1;align=center;verticalAlign=middle;whiteSpace=wrap;rounded=0;" vertex="1" parent="WIyWlLk6GJQsqaUBKTNV-1">
          <mxGeometry x="1128" y="-2241" width="60" height="30" as="geometry" />
        </mxCell>
        <mxCell id="V1QjoyrA2nP1wiMidViZ-420" value="enseigne" style="text;html=1;align=center;verticalAlign=middle;whiteSpace=wrap;rounded=0;" vertex="1" parent="WIyWlLk6GJQsqaUBKTNV-1">
          <mxGeometry x="693" y="-774" width="60" height="30" as="geometry" />
        </mxCell>
        <mxCell id="V1QjoyrA2nP1wiMidViZ-421" value="*" style="text;html=1;align=center;verticalAlign=middle;whiteSpace=wrap;rounded=0;" vertex="1" parent="WIyWlLk6GJQsqaUBKTNV-1">
          <mxGeometry x="684" y="-678" width="60" height="30" as="geometry" />
        </mxCell>
        <mxCell id="V1QjoyrA2nP1wiMidViZ-422" value="1" style="text;html=1;align=center;verticalAlign=middle;whiteSpace=wrap;rounded=0;" vertex="1" parent="WIyWlLk6GJQsqaUBKTNV-1">
          <mxGeometry x="684" y="-846" width="60" height="30" as="geometry" />
        </mxCell>
        <mxCell id="V1QjoyrA2nP1wiMidViZ-424" value="suit" style="text;html=1;align=center;verticalAlign=middle;whiteSpace=wrap;rounded=0;" vertex="1" parent="WIyWlLk6GJQsqaUBKTNV-1">
          <mxGeometry x="867" y="-882" width="60" height="30" as="geometry" />
        </mxCell>
        <mxCell id="V1QjoyrA2nP1wiMidViZ-425" value="*" style="text;html=1;align=center;verticalAlign=middle;whiteSpace=wrap;rounded=0;" vertex="1" parent="WIyWlLk6GJQsqaUBKTNV-1">
          <mxGeometry x="753" y="-678" width="60" height="30" as="geometry" />
        </mxCell>
        <mxCell id="V1QjoyrA2nP1wiMidViZ-426" value="*" style="text;html=1;align=center;verticalAlign=middle;whiteSpace=wrap;rounded=0;" vertex="1" parent="WIyWlLk6GJQsqaUBKTNV-1">
          <mxGeometry x="936" y="-1048" width="60" height="30" as="geometry" />
        </mxCell>
        <mxCell id="V1QjoyrA2nP1wiMidViZ-428" value="effectue" style="text;html=1;align=center;verticalAlign=middle;whiteSpace=wrap;rounded=0;" vertex="1" parent="WIyWlLk6GJQsqaUBKTNV-1">
          <mxGeometry x="1068" y="-792" width="60" height="30" as="geometry" />
        </mxCell>
        <mxCell id="V1QjoyrA2nP1wiMidViZ-429" value="1" style="text;html=1;align=center;verticalAlign=middle;whiteSpace=wrap;rounded=0;" vertex="1" parent="WIyWlLk6GJQsqaUBKTNV-1">
          <mxGeometry x="1031" y="-860" width="60" height="30" as="geometry" />
        </mxCell>
        <mxCell id="V1QjoyrA2nP1wiMidViZ-430" value="*" style="text;html=1;align=center;verticalAlign=middle;whiteSpace=wrap;rounded=0;" vertex="1" parent="WIyWlLk6GJQsqaUBKTNV-1">
          <mxGeometry x="1081" y="-744" width="60" height="30" as="geometry" />
        </mxCell>
        <mxCell id="V1QjoyrA2nP1wiMidViZ-432" value="obtient" style="text;html=1;align=center;verticalAlign=middle;whiteSpace=wrap;rounded=0;" vertex="1" parent="WIyWlLk6GJQsqaUBKTNV-1">
          <mxGeometry x="1701" y="-594" width="60" height="30" as="geometry" />
        </mxCell>
        <mxCell id="V1QjoyrA2nP1wiMidViZ-433" value="*" style="text;html=1;align=center;verticalAlign=middle;whiteSpace=wrap;rounded=0;" vertex="1" parent="WIyWlLk6GJQsqaUBKTNV-1">
          <mxGeometry x="1845" y="375" width="60" height="30" as="geometry" />
        </mxCell>
        <mxCell id="V1QjoyrA2nP1wiMidViZ-434" value="1" style="text;html=1;align=center;verticalAlign=middle;whiteSpace=wrap;rounded=0;" vertex="1" parent="WIyWlLk6GJQsqaUBKTNV-1">
          <mxGeometry x="1141" y="-990" width="60" height="30" as="geometry" />
        </mxCell>
        <mxCell id="V1QjoyrA2nP1wiMidViZ-436" value="" style="endArrow=none;html=1;rounded=0;entryX=0;entryY=0.25;entryDx=0;entryDy=0;exitX=0.5;exitY=0;exitDx=0;exitDy=0;" edge="1" parent="WIyWlLk6GJQsqaUBKTNV-1" source="V1QjoyrA2nP1wiMidViZ-343" target="V1QjoyrA2nP1wiMidViZ-434">
          <mxGeometry width="50" height="50" relative="1" as="geometry">
            <mxPoint x="1773" y="153" as="sourcePoint" />
            <mxPoint x="1634" y="-698" as="targetPoint" />
            <Array as="points">
              <mxPoint x="1773" y="-495" />
              <mxPoint x="1773" y="-594" />
            </Array>
          </mxGeometry>
        </mxCell>
        <mxCell id="V1QjoyrA2nP1wiMidViZ-437" value="" style="endArrow=none;html=1;rounded=0;exitX=0;exitY=0;exitDx=0;exitDy=0;entryX=0.25;entryY=1;entryDx=0;entryDy=0;" edge="1" parent="WIyWlLk6GJQsqaUBKTNV-1" source="V1QjoyrA2nP1wiMidViZ-429" target="V1QjoyrA2nP1wiMidViZ-430">
          <mxGeometry width="50" height="50" relative="1" as="geometry">
            <mxPoint x="1404" y="-670" as="sourcePoint" />
            <mxPoint x="1454" y="-720" as="targetPoint" />
          </mxGeometry>
        </mxCell>
        <mxCell id="V1QjoyrA2nP1wiMidViZ-438" value="" style="endArrow=none;html=1;rounded=0;exitX=0;exitY=0.75;exitDx=0;exitDy=0;entryX=0;entryY=0;entryDx=0;entryDy=0;" edge="1" parent="WIyWlLk6GJQsqaUBKTNV-1" source="V1QjoyrA2nP1wiMidViZ-408" target="V1QjoyrA2nP1wiMidViZ-409">
          <mxGeometry width="50" height="50" relative="1" as="geometry">
            <mxPoint x="1314" y="-1255" as="sourcePoint" />
            <mxPoint x="1364" y="-1305" as="targetPoint" />
          </mxGeometry>
        </mxCell>
        <mxCell id="V1QjoyrA2nP1wiMidViZ-439" value="" style="endArrow=none;html=1;rounded=0;exitX=0;exitY=1;exitDx=0;exitDy=0;" edge="1" parent="WIyWlLk6GJQsqaUBKTNV-1" source="V1QjoyrA2nP1wiMidViZ-425">
          <mxGeometry width="50" height="50" relative="1" as="geometry">
            <mxPoint x="1188" y="-679" as="sourcePoint" />
            <mxPoint x="981" y="-1033" as="targetPoint" />
          </mxGeometry>
        </mxCell>
        <mxCell id="V1QjoyrA2nP1wiMidViZ-442" value="" style="endArrow=none;html=1;rounded=0;exitX=0.354;exitY=0.002;exitDx=0;exitDy=0;exitPerimeter=0;" edge="1" parent="WIyWlLk6GJQsqaUBKTNV-1" source="V1QjoyrA2nP1wiMidViZ-121" target="V1QjoyrA2nP1wiMidViZ-101">
          <mxGeometry width="50" height="50" relative="1" as="geometry">
            <mxPoint x="664" y="-642" as="sourcePoint" />
            <mxPoint x="1238" y="-729" as="targetPoint" />
          </mxGeometry>
        </mxCell>
        <mxCell id="V1QjoyrA2nP1wiMidViZ-443" value="" style="endArrow=none;html=1;rounded=0;exitX=0;exitY=0.75;exitDx=0;exitDy=0;" edge="1" parent="WIyWlLk6GJQsqaUBKTNV-1" source="V1QjoyrA2nP1wiMidViZ-412" target="V1QjoyrA2nP1wiMidViZ-186">
          <mxGeometry width="50" height="50" relative="1" as="geometry">
            <mxPoint x="1080" y="-1759" as="sourcePoint" />
            <mxPoint x="1130" y="-1809" as="targetPoint" />
          </mxGeometry>
        </mxCell>
        <mxCell id="V1QjoyrA2nP1wiMidViZ-444" value="" style="endArrow=none;html=1;rounded=0;exitX=0.25;exitY=1;exitDx=0;exitDy=0;entryX=0;entryY=0;entryDx=0;entryDy=0;" edge="1" parent="WIyWlLk6GJQsqaUBKTNV-1" source="V1QjoyrA2nP1wiMidViZ-416" target="V1QjoyrA2nP1wiMidViZ-417">
          <mxGeometry width="50" height="50" relative="1" as="geometry">
            <mxPoint x="1080" y="-2146" as="sourcePoint" />
            <mxPoint x="1130" y="-2196" as="targetPoint" />
          </mxGeometry>
        </mxCell>
        <mxCell id="V1QjoyrA2nP1wiMidViZ-445" value="" style="endArrow=none;html=1;rounded=0;exitX=0.25;exitY=0;exitDx=0;exitDy=0;entryX=0;entryY=0.5;entryDx=0;entryDy=0;" edge="1" parent="WIyWlLk6GJQsqaUBKTNV-1" source="V1QjoyrA2nP1wiMidViZ-207" target="V1QjoyrA2nP1wiMidViZ-125">
          <mxGeometry width="50" height="50" relative="1" as="geometry">
            <mxPoint x="612" y="-76" as="sourcePoint" />
            <mxPoint x="662" y="-126" as="targetPoint" />
          </mxGeometry>
        </mxCell>
        <mxCell id="V1QjoyrA2nP1wiMidViZ-446" value="" style="endArrow=none;html=1;rounded=0;exitX=0.5;exitY=0;exitDx=0;exitDy=0;entryX=0;entryY=0.5;entryDx=0;entryDy=0;" edge="1" parent="WIyWlLk6GJQsqaUBKTNV-1" source="V1QjoyrA2nP1wiMidViZ-224" target="V1QjoyrA2nP1wiMidViZ-138">
          <mxGeometry width="50" height="50" relative="1" as="geometry">
            <mxPoint x="612" y="-76" as="sourcePoint" />
            <mxPoint x="662" y="-126" as="targetPoint" />
          </mxGeometry>
        </mxCell>
        <mxCell id="V1QjoyrA2nP1wiMidViZ-447" value="" style="endArrow=none;html=1;rounded=0;exitX=0.5;exitY=0;exitDx=0;exitDy=0;entryX=1;entryY=0.5;entryDx=0;entryDy=0;" edge="1" parent="WIyWlLk6GJQsqaUBKTNV-1" source="V1QjoyrA2nP1wiMidViZ-241" target="V1QjoyrA2nP1wiMidViZ-128">
          <mxGeometry width="50" height="50" relative="1" as="geometry">
            <mxPoint x="612" y="-76" as="sourcePoint" />
            <mxPoint x="662" y="-126" as="targetPoint" />
          </mxGeometry>
        </mxCell>
        <mxCell id="V1QjoyrA2nP1wiMidViZ-448" value="" style="endArrow=none;html=1;rounded=0;exitX=0.341;exitY=0.002;exitDx=0;exitDy=0;exitPerimeter=0;entryX=1;entryY=0.5;entryDx=0;entryDy=0;" edge="1" parent="WIyWlLk6GJQsqaUBKTNV-1" source="V1QjoyrA2nP1wiMidViZ-258" target="V1QjoyrA2nP1wiMidViZ-125">
          <mxGeometry width="50" height="50" relative="1" as="geometry">
            <mxPoint x="1170" y="-76" as="sourcePoint" />
            <mxPoint x="1220" y="-126" as="targetPoint" />
          </mxGeometry>
        </mxCell>
        <mxCell id="V1QjoyrA2nP1wiMidViZ-449" value="contient" style="text;html=1;align=center;verticalAlign=middle;whiteSpace=wrap;rounded=0;" vertex="1" parent="WIyWlLk6GJQsqaUBKTNV-1">
          <mxGeometry x="387" y="-387" width="60" height="30" as="geometry" />
        </mxCell>
        <mxCell id="V1QjoyrA2nP1wiMidViZ-450" value="*" style="text;html=1;align=center;verticalAlign=middle;whiteSpace=wrap;rounded=0;" vertex="1" parent="WIyWlLk6GJQsqaUBKTNV-1">
          <mxGeometry x="171" y="-129" width="60" height="30" as="geometry" />
        </mxCell>
        <mxCell id="V1QjoyrA2nP1wiMidViZ-451" value="1" style="text;html=1;align=center;verticalAlign=middle;whiteSpace=wrap;rounded=0;" vertex="1" parent="WIyWlLk6GJQsqaUBKTNV-1">
          <mxGeometry x="552" y="-576" width="60" height="30" as="geometry" />
        </mxCell>
        <mxCell id="V1QjoyrA2nP1wiMidViZ-452" value="possede" style="text;html=1;align=center;verticalAlign=middle;whiteSpace=wrap;rounded=0;" vertex="1" parent="WIyWlLk6GJQsqaUBKTNV-1">
          <mxGeometry x="516" y="-198" width="60" height="30" as="geometry" />
        </mxCell>
        <mxCell id="V1QjoyrA2nP1wiMidViZ-453" value="1" style="text;html=1;align=center;verticalAlign=middle;whiteSpace=wrap;rounded=0;" vertex="1" parent="WIyWlLk6GJQsqaUBKTNV-1">
          <mxGeometry x="456" y="-135" width="60" height="30" as="geometry" />
        </mxCell>
        <mxCell id="V1QjoyrA2nP1wiMidViZ-455" value="1" style="text;html=1;align=center;verticalAlign=middle;whiteSpace=wrap;rounded=0;" vertex="1" parent="WIyWlLk6GJQsqaUBKTNV-1">
          <mxGeometry x="552" y="-255" width="60" height="30" as="geometry" />
        </mxCell>
        <mxCell id="V1QjoyrA2nP1wiMidViZ-456" value="contient" style="text;html=1;align=center;verticalAlign=middle;whiteSpace=wrap;rounded=0;" vertex="1" parent="WIyWlLk6GJQsqaUBKTNV-1">
          <mxGeometry x="882" y="-306" width="60" height="30" as="geometry" />
        </mxCell>
        <mxCell id="V1QjoyrA2nP1wiMidViZ-457" value="*" style="text;html=1;align=center;verticalAlign=middle;whiteSpace=wrap;rounded=0;" vertex="1" parent="WIyWlLk6GJQsqaUBKTNV-1">
          <mxGeometry x="996" y="-129" width="60" height="30" as="geometry" />
        </mxCell>
        <mxCell id="V1QjoyrA2nP1wiMidViZ-458" value="1" style="text;html=1;align=center;verticalAlign=middle;whiteSpace=wrap;rounded=0;" vertex="1" parent="WIyWlLk6GJQsqaUBKTNV-1">
          <mxGeometry x="772" y="-486" width="60" height="30" as="geometry" />
        </mxCell>
        <mxCell id="V1QjoyrA2nP1wiMidViZ-459" value="propose" style="text;html=1;align=center;verticalAlign=middle;whiteSpace=wrap;rounded=0;" vertex="1" parent="WIyWlLk6GJQsqaUBKTNV-1">
          <mxGeometry x="1052" y="-351" width="60" height="30" as="geometry" />
        </mxCell>
        <mxCell id="V1QjoyrA2nP1wiMidViZ-460" value="*" style="text;html=1;align=center;verticalAlign=middle;whiteSpace=wrap;rounded=0;" vertex="1" parent="WIyWlLk6GJQsqaUBKTNV-1">
          <mxGeometry x="1364" y="-117" width="60" height="30" as="geometry" />
        </mxCell>
        <mxCell id="V1QjoyrA2nP1wiMidViZ-461" value="1" style="text;html=1;align=center;verticalAlign=middle;whiteSpace=wrap;rounded=0;" vertex="1" parent="WIyWlLk6GJQsqaUBKTNV-1">
          <mxGeometry x="781" y="-564" width="60" height="30" as="geometry" />
        </mxCell>
        <mxCell id="V1QjoyrA2nP1wiMidViZ-462" value="" style="endArrow=none;html=1;rounded=0;exitX=0.33;exitY=-0.006;exitDx=0;exitDy=0;exitPerimeter=0;entryX=0.514;entryY=0.966;entryDx=0;entryDy=0;entryPerimeter=0;" edge="1" parent="WIyWlLk6GJQsqaUBKTNV-1" source="V1QjoyrA2nP1wiMidViZ-309" target="V1QjoyrA2nP1wiMidViZ-138">
          <mxGeometry width="50" height="50" relative="1" as="geometry">
            <mxPoint x="909" y="284" as="sourcePoint" />
            <mxPoint x="959" y="234" as="targetPoint" />
          </mxGeometry>
        </mxCell>
        <mxCell id="V1QjoyrA2nP1wiMidViZ-463" value="possede" style="text;html=1;align=center;verticalAlign=middle;whiteSpace=wrap;rounded=0;" vertex="1" parent="WIyWlLk6GJQsqaUBKTNV-1">
          <mxGeometry x="744" y="90" width="60" height="30" as="geometry" />
        </mxCell>
        <mxCell id="V1QjoyrA2nP1wiMidViZ-464" value="1" style="text;html=1;align=center;verticalAlign=middle;whiteSpace=wrap;rounded=0;" vertex="1" parent="WIyWlLk6GJQsqaUBKTNV-1">
          <mxGeometry x="684" y="-216" width="60" height="30" as="geometry" />
        </mxCell>
        <mxCell id="V1QjoyrA2nP1wiMidViZ-465" value="1" style="text;html=1;align=center;verticalAlign=middle;whiteSpace=wrap;rounded=0;" vertex="1" parent="WIyWlLk6GJQsqaUBKTNV-1">
          <mxGeometry x="817" y="411" width="60" height="30" as="geometry" />
        </mxCell>
        <mxCell id="V1QjoyrA2nP1wiMidViZ-466" value="" style="endArrow=none;html=1;rounded=0;exitX=0.5;exitY=0;exitDx=0;exitDy=0;" edge="1" parent="WIyWlLk6GJQsqaUBKTNV-1" source="V1QjoyrA2nP1wiMidViZ-275">
          <mxGeometry width="50" height="50" relative="1" as="geometry">
            <mxPoint x="351" y="230" as="sourcePoint" />
            <mxPoint x="216" y="144" as="targetPoint" />
          </mxGeometry>
        </mxCell>
        <mxCell id="V1QjoyrA2nP1wiMidViZ-467" value="contient" style="text;html=1;align=center;verticalAlign=middle;whiteSpace=wrap;rounded=0;" vertex="1" parent="WIyWlLk6GJQsqaUBKTNV-1">
          <mxGeometry x="131" y="207" width="60" height="30" as="geometry" />
        </mxCell>
        <mxCell id="V1QjoyrA2nP1wiMidViZ-468" value="*" style="text;html=1;align=center;verticalAlign=middle;whiteSpace=wrap;rounded=0;" vertex="1" parent="WIyWlLk6GJQsqaUBKTNV-1">
          <mxGeometry x="108" y="294" width="60" height="30" as="geometry" />
        </mxCell>
        <mxCell id="V1QjoyrA2nP1wiMidViZ-469" value="1" style="text;html=1;align=center;verticalAlign=middle;whiteSpace=wrap;rounded=0;" vertex="1" parent="WIyWlLk6GJQsqaUBKTNV-1">
          <mxGeometry x="153" y="143" width="60" height="30" as="geometry" />
        </mxCell>
        <mxCell id="V1QjoyrA2nP1wiMidViZ-470" value="" style="endArrow=none;html=1;rounded=0;exitX=0.455;exitY=1.171;exitDx=0;exitDy=0;exitPerimeter=0;entryX=0.5;entryY=0;entryDx=0;entryDy=0;" edge="1" parent="WIyWlLk6GJQsqaUBKTNV-1" source="V1QjoyrA2nP1wiMidViZ-239" target="V1QjoyrA2nP1wiMidViZ-292">
          <mxGeometry width="50" height="50" relative="1" as="geometry">
            <mxPoint x="351" y="230" as="sourcePoint" />
            <mxPoint x="504" y="315" as="targetPoint" />
          </mxGeometry>
        </mxCell>
        <mxCell id="V1QjoyrA2nP1wiMidViZ-471" value="contient" style="text;html=1;align=center;verticalAlign=middle;whiteSpace=wrap;rounded=0;" vertex="1" parent="WIyWlLk6GJQsqaUBKTNV-1">
          <mxGeometry x="492" y="207" width="60" height="30" as="geometry" />
        </mxCell>
        <mxCell id="V1QjoyrA2nP1wiMidViZ-472" value="1" style="text;html=1;align=center;verticalAlign=middle;whiteSpace=wrap;rounded=0;" vertex="1" parent="WIyWlLk6GJQsqaUBKTNV-1">
          <mxGeometry x="492" y="143" width="60" height="30" as="geometry" />
        </mxCell>
        <mxCell id="V1QjoyrA2nP1wiMidViZ-473" value="*" style="text;html=1;align=center;verticalAlign=middle;whiteSpace=wrap;rounded=0;" vertex="1" parent="WIyWlLk6GJQsqaUBKTNV-1">
          <mxGeometry x="513" y="294" width="60" height="30" as="geometry" />
        </mxCell>
        <mxCell id="V1QjoyrA2nP1wiMidViZ-474" value="" style="endArrow=none;html=1;rounded=0;exitX=0.182;exitY=0.024;exitDx=0;exitDy=0;exitPerimeter=0;entryX=1;entryY=0.5;entryDx=0;entryDy=0;" edge="1" parent="WIyWlLk6GJQsqaUBKTNV-1" source="V1QjoyrA2nP1wiMidViZ-326" target="V1QjoyrA2nP1wiMidViZ-249">
          <mxGeometry width="50" height="50" relative="1" as="geometry">
            <mxPoint x="1260" y="230" as="sourcePoint" />
            <mxPoint x="1310" y="180" as="targetPoint" />
          </mxGeometry>
        </mxCell>
        <mxCell id="V1QjoyrA2nP1wiMidViZ-475" value="compose" style="text;html=1;align=center;verticalAlign=middle;whiteSpace=wrap;rounded=0;" vertex="1" parent="WIyWlLk6GJQsqaUBKTNV-1">
          <mxGeometry x="1162" y="273" width="60" height="30" as="geometry" />
        </mxCell>
        <mxCell id="V1QjoyrA2nP1wiMidViZ-476" value="1" style="text;html=1;align=center;verticalAlign=middle;whiteSpace=wrap;rounded=0;" vertex="1" parent="WIyWlLk6GJQsqaUBKTNV-1">
          <mxGeometry x="1096" y="108" width="60" height="30" as="geometry" />
        </mxCell>
        <mxCell id="V1QjoyrA2nP1wiMidViZ-477" value="*" style="text;html=1;align=center;verticalAlign=middle;whiteSpace=wrap;rounded=0;" vertex="1" parent="WIyWlLk6GJQsqaUBKTNV-1">
          <mxGeometry x="1323" y="369" width="60" height="30" as="geometry" />
        </mxCell>
        <mxCell id="V1QjoyrA2nP1wiMidViZ-478" value="" style="endArrow=none;html=1;rounded=0;exitX=1;exitY=0.5;exitDx=0;exitDy=0;entryX=-0.015;entryY=0.068;entryDx=0;entryDy=0;entryPerimeter=0;" edge="1" parent="WIyWlLk6GJQsqaUBKTNV-1" source="V1QjoyrA2nP1wiMidViZ-330" target="V1QjoyrA2nP1wiMidViZ-348">
          <mxGeometry width="50" height="50" relative="1" as="geometry">
            <mxPoint x="1566" y="464" as="sourcePoint" />
            <mxPoint x="1616" y="414" as="targetPoint" />
          </mxGeometry>
        </mxCell>
        <mxCell id="V1QjoyrA2nP1wiMidViZ-479" value="genere" style="text;html=1;align=center;verticalAlign=middle;whiteSpace=wrap;rounded=0;" vertex="1" parent="WIyWlLk6GJQsqaUBKTNV-1">
          <mxGeometry x="1566" y="468" width="60" height="30" as="geometry" />
        </mxCell>
        <mxCell id="V1QjoyrA2nP1wiMidViZ-480" value="1" style="text;html=1;align=center;verticalAlign=middle;whiteSpace=wrap;rounded=0;" vertex="1" parent="WIyWlLk6GJQsqaUBKTNV-1">
          <mxGeometry x="1467" y="468" width="60" height="30" as="geometry" />
        </mxCell>
        <mxCell id="V1QjoyrA2nP1wiMidViZ-481" value="*" style="text;html=1;align=center;verticalAlign=middle;whiteSpace=wrap;rounded=0;" vertex="1" parent="WIyWlLk6GJQsqaUBKTNV-1">
          <mxGeometry x="1665" y="477" width="60" height="30" as="geometry" />
        </mxCell>
        <mxCell id="V1QjoyrA2nP1wiMidViZ-482" value="" style="endArrow=none;html=1;rounded=0;exitX=0.25;exitY=0;exitDx=0;exitDy=0;entryX=0.436;entryY=0.826;entryDx=0;entryDy=0;entryPerimeter=0;" edge="1" parent="WIyWlLk6GJQsqaUBKTNV-1" source="V1QjoyrA2nP1wiMidViZ-360" target="V1QjoyrA2nP1wiMidViZ-289">
          <mxGeometry width="50" height="50" relative="1" as="geometry">
            <mxPoint x="450" y="635" as="sourcePoint" />
            <mxPoint x="500" y="585" as="targetPoint" />
          </mxGeometry>
        </mxCell>
        <mxCell id="V1QjoyrA2nP1wiMidViZ-483" value="contient" style="text;html=1;align=center;verticalAlign=middle;whiteSpace=wrap;rounded=0;" vertex="1" parent="WIyWlLk6GJQsqaUBKTNV-1">
          <mxGeometry x="153" y="627" width="60" height="30" as="geometry" />
        </mxCell>
        <mxCell id="V1QjoyrA2nP1wiMidViZ-484" value="1" style="text;html=1;align=center;verticalAlign=middle;whiteSpace=wrap;rounded=0;" vertex="1" parent="WIyWlLk6GJQsqaUBKTNV-1">
          <mxGeometry x="99" y="576" width="60" height="30" as="geometry" />
        </mxCell>
        <mxCell id="V1QjoyrA2nP1wiMidViZ-485" value="*" style="text;html=1;align=center;verticalAlign=middle;whiteSpace=wrap;rounded=0;" vertex="1" parent="WIyWlLk6GJQsqaUBKTNV-1">
          <mxGeometry x="168" y="720" width="60" height="30" as="geometry" />
        </mxCell>
        <mxCell id="V1QjoyrA2nP1wiMidViZ-487" value="" style="endArrow=none;html=1;rounded=0;exitX=0.147;exitY=0;exitDx=0;exitDy=0;exitPerimeter=0;entryX=0.463;entryY=1.145;entryDx=0;entryDy=0;entryPerimeter=0;" edge="1" parent="WIyWlLk6GJQsqaUBKTNV-1" source="V1QjoyrA2nP1wiMidViZ-377" target="V1QjoyrA2nP1wiMidViZ-306">
          <mxGeometry width="50" height="50" relative="1" as="geometry">
            <mxPoint x="648" y="797" as="sourcePoint" />
            <mxPoint x="698" y="747" as="targetPoint" />
          </mxGeometry>
        </mxCell>
        <mxCell id="V1QjoyrA2nP1wiMidViZ-488" value="" style="endArrow=none;html=1;rounded=0;entryX=0.435;entryY=1.026;entryDx=0;entryDy=0;entryPerimeter=0;exitX=0.671;exitY=-0.004;exitDx=0;exitDy=0;exitPerimeter=0;" edge="1" parent="WIyWlLk6GJQsqaUBKTNV-1" source="V1QjoyrA2nP1wiMidViZ-377" target="V1QjoyrA2nP1wiMidViZ-323">
          <mxGeometry width="50" height="50" relative="1" as="geometry">
            <mxPoint x="684" y="864" as="sourcePoint" />
            <mxPoint x="698" y="747" as="targetPoint" />
          </mxGeometry>
        </mxCell>
        <mxCell id="V1QjoyrA2nP1wiMidViZ-489" value="contient" style="text;html=1;align=center;verticalAlign=middle;whiteSpace=wrap;rounded=0;" vertex="1" parent="WIyWlLk6GJQsqaUBKTNV-1">
          <mxGeometry x="492" y="717" width="60" height="30" as="geometry" />
        </mxCell>
        <mxCell id="V1QjoyrA2nP1wiMidViZ-490" value="contient" style="text;html=1;align=center;verticalAlign=middle;whiteSpace=wrap;rounded=0;" vertex="1" parent="WIyWlLk6GJQsqaUBKTNV-1">
          <mxGeometry x="767" y="750" width="60" height="30" as="geometry" />
        </mxCell>
        <mxCell id="V1QjoyrA2nP1wiMidViZ-491" value="*" style="text;html=1;align=center;verticalAlign=middle;whiteSpace=wrap;rounded=0;" vertex="1" parent="WIyWlLk6GJQsqaUBKTNV-1">
          <mxGeometry x="540" y="843" width="60" height="30" as="geometry" />
        </mxCell>
        <mxCell id="V1QjoyrA2nP1wiMidViZ-492" value="1" style="text;html=1;align=center;verticalAlign=middle;whiteSpace=wrap;rounded=0;" vertex="1" parent="WIyWlLk6GJQsqaUBKTNV-1">
          <mxGeometry x="447" y="597" width="60" height="30" as="geometry" />
        </mxCell>
        <mxCell id="V1QjoyrA2nP1wiMidViZ-493" value="*" style="text;html=1;align=center;verticalAlign=middle;whiteSpace=wrap;rounded=0;" vertex="1" parent="WIyWlLk6GJQsqaUBKTNV-1">
          <mxGeometry x="684" y="843" width="60" height="30" as="geometry" />
        </mxCell>
        <mxCell id="V1QjoyrA2nP1wiMidViZ-494" value="1" style="text;html=1;align=center;verticalAlign=middle;whiteSpace=wrap;rounded=0;" vertex="1" parent="WIyWlLk6GJQsqaUBKTNV-1">
          <mxGeometry x="827" y="657" width="60" height="30" as="geometry" />
        </mxCell>
      </root>
    </mxGraphModel>
  </diagram>
</mxfile>
